<?xml version="1.0" encoding="UTF-8" standalone="no"?>
<!-- Generator: Adobe Illustrator 16.0.0, SVG Export Plug-In . SVG Version: 6.00 Build 0)  -->

<svg
   xmlns:dc="http://purl.org/dc/elements/1.1/"
   xmlns:cc="http://creativecommons.org/ns#"
   xmlns:rdf="http://www.w3.org/1999/02/22-rdf-syntax-ns#"
   xmlns:svg="http://www.w3.org/2000/svg"
   xmlns="http://www.w3.org/2000/svg"
   xmlns:sodipodi="http://sodipodi.sourceforge.net/DTD/sodipodi-0.dtd"
   xmlns:inkscape="http://www.inkscape.org/namespaces/inkscape"
   version="1.1"
   id="Layer_1"
   x="0px"
   y="0px"
   width="420.00513"
   height="151.29201"
   viewBox="0 0 420.00513 151.29201"
   enable-background="new 0 0 504 504"
   xml:space="preserve"
   inkscape:version="0.91 r13725"
   sodipodi:docname="logo.svg"><metadata
     id="metadata121"><rdf:RDF><cc:Work
         rdf:about=""><dc:format>image/svg+xml</dc:format><dc:type
           rdf:resource="http://purl.org/dc/dcmitype/StillImage" /><dc:title></dc:title></cc:Work></rdf:RDF></metadata><defs
     id="defs119" /><sodipodi:namedview
     pagecolor="#ffffff"
     bordercolor="#666666"
     borderopacity="1"
     objecttolerance="10"
     gridtolerance="10"
     guidetolerance="10"
     inkscape:pageopacity="0"
     inkscape:pageshadow="2"
     inkscape:window-width="1920"
     inkscape:window-height="1017"
     id="namedview117"
     showgrid="false"
     fit-margin-top="0"
     fit-margin-left="0"
     fit-margin-right="0"
     fit-margin-bottom="0"
     inkscape:zoom="1.3244222"
     inkscape:cx="447.18187"
     inkscape:cy="-83.593562"
     inkscape:window-x="-8"
     inkscape:window-y="-8"
     inkscape:window-maximized="1"
     inkscape:current-layer="Layer_1" /><g
     id="g3"
     transform="translate(-42.747518,-156.677)"><g
       id="g5"><path
         style="fill:#333333"
         inkscape:connector-curvature="0"
         d="m 289.879,307.248 -21.091,0 c -4.6,0 -8.542,-1.642 -11.827,-4.928 -3.286,-3.285 -4.927,-7.259 -4.927,-11.925 l 0,-19.416 c 0,-4.664 1.609,-8.606 4.829,-11.827 3.285,-3.284 7.228,-4.928 11.827,-4.928 l 21.189,0 c 1.444,0 2.677,0.51 3.695,1.528 1.019,1.02 1.528,2.251 1.528,3.695 0,1.446 -0.51,2.695 -1.528,3.745 -1.019,1.053 -2.251,1.577 -3.695,1.577 l -21.091,0 c -1.709,0 -3.171,0.608 -4.386,1.823 -1.217,1.217 -1.823,2.678 -1.823,4.386 l 0,19.416 c 0,1.709 0.606,3.17 1.823,4.386 1.215,1.216 2.677,1.823 4.386,1.823 l 21.091,0 c 1.444,0 2.677,0.526 3.695,1.576 1.019,1.052 1.528,2.301 1.528,3.745 0,1.446 -0.51,2.695 -1.528,3.745 -1.018,1.054 -2.251,1.579 -3.695,1.579 z"
         id="path7" /><path
         style="fill:#333333"
         inkscape:connector-curvature="0"
         d="m 335.213,254.225 c 4.73,0 8.755,1.676 12.073,5.026 3.317,3.352 4.978,7.393 4.978,12.123 l 0,30.453 c 0,1.513 -0.527,2.794 -1.577,3.844 -1.052,1.052 -2.301,1.577 -3.745,1.577 -1.513,0 -2.794,-0.525 -3.844,-1.577 -1.052,-1.05 -1.577,-2.331 -1.577,-3.844 l 0,-30.453 c 0,-1.774 -0.625,-3.285 -1.872,-4.533 -1.249,-1.248 -2.728,-1.873 -4.436,-1.873 l -12.615,0 c -1.773,0 -3.286,0.625 -4.533,1.873 -1.249,1.248 -1.872,2.759 -1.872,4.533 l 0,30.453 c 0,1.513 -0.527,2.794 -1.577,3.844 -1.052,1.052 -2.301,1.577 -3.745,1.577 -1.513,0 -2.794,-0.525 -3.844,-1.577 -1.052,-1.05 -1.577,-2.331 -1.577,-3.844 l 0,-64.948 c 0,-1.444 0.525,-2.71 1.577,-3.794 1.05,-1.084 2.331,-1.626 3.844,-1.626 1.444,0 2.693,0.527 3.745,1.577 1.05,1.052 1.577,2.333 1.577,3.843 l 0,18.528 c 1.971,-0.788 4.04,-1.183 6.209,-1.183 l 12.811,0 z"
         id="path9" /><path
         style="fill:#333333"
         inkscape:connector-curvature="0"
         d="m 401.836,307.248 -21.978,0 c -4.6,0 -8.542,-1.642 -11.826,-4.928 -3.286,-3.285 -4.928,-7.259 -4.928,-11.925 0,-4.665 1.626,-8.624 4.878,-11.876 3.253,-3.253 7.21,-4.879 11.876,-4.879 l 16.755,0 0,-2.661 c 0,-1.708 -0.608,-3.169 -1.823,-4.386 -1.217,-1.215 -2.679,-1.823 -4.386,-1.823 l -19.219,0 c -1.512,0 -2.776,-0.508 -3.794,-1.527 -1.02,-1.019 -1.528,-2.282 -1.528,-3.795 0,-1.444 0.525,-2.676 1.577,-3.695 1.051,-1.019 2.299,-1.528 3.745,-1.528 l 19.219,0 c 4.598,0 8.54,1.644 11.826,4.928 3.285,3.287 4.928,7.229 4.928,11.827 l 0,30.946 c 0,1.446 -0.526,2.695 -1.577,3.745 -1.052,1.052 -2.3,1.577 -3.745,1.577 z m -5.223,-23.061 -16.755,0 c -1.709,0 -3.171,0.607 -4.386,1.823 -1.217,1.216 -1.823,2.678 -1.823,4.386 0,1.709 0.606,3.17 1.823,4.386 1.215,1.216 2.677,1.823 4.386,1.823 l 16.755,0 0,-12.418 z"
         id="path11" /><path
         style="fill:#333333"
         inkscape:connector-curvature="0"
         d="m 460.476,305.671 c -1.052,1.052 -2.3,1.577 -3.745,1.577 -1.445,0 -2.678,-0.525 -3.695,-1.577 -1.02,-1.05 -1.527,-2.299 -1.527,-3.745 l 0,-30.946 c 0,-1.642 -0.592,-3.07 -1.774,-4.287 -1.183,-1.215 -2.629,-1.855 -4.336,-1.922 l -10.743,0 c -1.709,0.066 -3.153,0.707 -4.336,1.922 -1.183,1.217 -1.774,2.646 -1.774,4.287 l 0,30.946 c 0,1.446 -0.526,2.695 -1.577,3.745 -1.052,1.052 -2.3,1.577 -3.745,1.577 -1.445,0 -2.678,-0.525 -3.695,-1.577 -1.02,-1.05 -1.527,-2.299 -1.527,-3.745 l 0,-30.946 c 0,-4.664 1.608,-8.606 4.829,-11.827 3.284,-3.284 7.227,-4.928 11.826,-4.928 l 10.743,0 c 4.664,0 8.574,1.644 11.728,4.928 3.285,3.287 4.928,7.229 4.928,11.827 l 0,30.946 c -0.003,1.446 -0.53,2.695 -1.58,3.745 z"
         id="path13" /></g><g
       id="g15"><g
         id="g17"><g
           id="g19"><path
             style="fill:#333333;stroke:#000000;stroke-width:3;stroke-linecap:round;stroke-linejoin:round;stroke-miterlimit:10"
             inkscape:connector-curvature="0"
             stroke-miterlimit="10"
             d="m 260.604,205.496 c -0.201,0.315 -0.351,0.599 -0.463,0.825 l -0.25,0 c -0.35,0 -1.321,0.226 -1.593,1.323 -0.226,0.87 0.656,1.572 1.019,1.593 l 0.055,0 -0.102,0.329 -0.078,0.158 c -1.381,2.181 -3.426,5.007 -3.617,7.81 -0.206,2.748 0.598,5.394 1.934,7.235 -0.047,0.181 -0.102,0.396 -0.172,0.667 -0.189,0.159 -0.858,0.712 -1.109,1.322 -0.291,0.701 -0.291,2.113 -0.291,2.113 l 31.684,0 c 0,0 -0.078,-1.401 -0.339,-2.079 -0.192,-0.521 -0.78,-1.085 -1.018,-1.3 -0.011,-0.27 -0.046,-0.565 -0.102,-0.893 1.267,-1.775 1.989,-3.9 1.831,-6.511 -0.182,-2.848 -1.707,-5.969 -3.301,-8.365 l -0.011,-0.487 0.124,0 c 0.361,-0.021 1.242,-0.723 1.018,-1.593 -0.271,-1.085 -1.244,-1.323 -1.595,-1.323 l -0.09,0 c -0.103,-0.191 0.022,-0.158 -0.136,-0.328 l -0.124,-0.215 c -1.237,-2.322 -2.633,-5.733 -3.89,-9.323 -8.051,3.096 -14.607,6.31 -19.311,8.857 -0.025,0.06 -0.048,0.126 -0.073,0.185 z"
             id="path21" /><path
             style="fill:#333333;stroke:#000000;stroke-width:3;stroke-linecap:round;stroke-linejoin:round;stroke-miterlimit:10"
             inkscape:connector-curvature="0"
             stroke-miterlimit="10"
             d="m 281.492,183.93 c 0.248,-0.035 2.758,-1.346 2.602,-3.461 -0.193,-2.645 -2.748,-3.605 -2.986,-3.605 l -5.166,0 -0.01,-0.078 c 3.255,-1.571 5.482,-4.94 5.482,-8.829 0,-5.403 -4.33,-9.779 -9.664,-9.779 -5.348,0 -9.678,4.375 -9.678,9.779 0,3.889 2.238,7.257 5.482,8.829 l -0.013,0.078 -5.231,0 c -0.249,0 -2.703,0.96 -2.895,3.605 -0.158,2.115 2.25,3.416 2.498,3.461 0.09,0 2.521,0 5.029,0 -0.928,5.752 -3.773,15.346 -6.266,21.383 4.703,-2.547 11.26,-5.762 19.311,-8.857 -1.568,-4.485 -2.919,-9.25 -3.458,-12.525 2.534,-0.001 4.885,-0.001 4.963,-0.001 z"
             id="path23" /></g><g
           id="g25"><path
             style="fill:#cccccc;stroke:#000000;stroke-width:3;stroke-linecap:round;stroke-linejoin:round;stroke-miterlimit:10"
             inkscape:connector-curvature="0"
             stroke-miterlimit="10"
             d="m 303.912,205.496 c -0.201,0.315 -0.35,0.599 -0.462,0.825 l -0.25,0 c -0.349,0 -1.321,0.226 -1.593,1.323 -0.226,0.87 0.657,1.572 1.02,1.593 l 0.055,0 -0.103,0.329 -0.077,0.158 c -1.381,2.181 -3.427,5.007 -3.617,7.81 -0.207,2.748 0.598,5.394 1.933,7.235 -0.047,0.181 -0.102,0.396 -0.171,0.667 -0.19,0.159 -0.859,0.712 -1.108,1.322 -0.291,0.701 -0.291,2.113 -0.291,2.113 l 31.683,0 c 0,0 -0.082,-1.401 -0.339,-2.079 -0.192,-0.521 -0.781,-1.085 -1.019,-1.3 -0.012,-0.27 -0.045,-0.565 -0.101,-0.893 1.267,-1.775 1.989,-3.9 1.831,-6.511 -0.183,-2.848 -1.708,-5.969 -3.302,-8.365 l -0.012,-0.487 0.125,0 c 0.361,-0.021 1.244,-0.723 1.018,-1.593 -0.271,-1.085 -1.244,-1.323 -1.595,-1.323 l -0.091,0 c -0.101,-0.191 0.023,-0.158 -0.135,-0.328 l -0.124,-0.215 c -2.418,-4.541 -5.451,-13.241 -6.84,-19.313 -3.761,0.425 -7.408,0.981 -10.94,1.638 -1.309,5.615 -3.518,12.65 -5.495,17.394 z"
             id="path27" /><path
             style="fill:#cccccc;stroke:#000000;stroke-width:3;stroke-linecap:round;stroke-linejoin:round;stroke-miterlimit:10"
             inkscape:connector-curvature="0"
             stroke-miterlimit="10"
             d="m 324.803,183.93 c 0.248,-0.035 2.759,-1.346 2.599,-3.461 -0.19,-2.645 -2.746,-3.605 -2.981,-3.605 l -5.169,0 -0.01,-0.078 c 3.256,-1.571 5.481,-4.94 5.481,-8.829 0,-5.403 -4.329,-9.779 -9.663,-9.779 -5.348,0 -9.677,4.375 -9.677,9.779 0,3.889 2.236,7.257 5.48,8.829 l -0.012,0.078 -5.232,0 c -0.249,0 -2.702,0.96 -2.893,3.605 -0.157,2.115 2.249,3.416 2.498,3.461 0.09,0 2.521,0 5.028,0 -0.199,1.236 -0.491,2.655 -0.846,4.173 3.532,-0.656 7.18,-1.213 10.94,-1.638 -0.209,-0.911 -0.382,-1.766 -0.51,-2.535 2.535,0 4.887,0 4.967,0 z"
             id="path29" /></g><g
           id="g31"><path
             style="fill:#cccccc;stroke:#000000;stroke-width:3;stroke-linecap:round;stroke-linejoin:round;stroke-miterlimit:10"
             inkscape:connector-curvature="0"
             stroke-miterlimit="10"
             d="m 347.224,205.496 c -0.203,0.315 -0.351,0.599 -0.464,0.825 l -0.248,0 c -0.351,0 -1.324,0.226 -1.595,1.323 -0.227,0.87 0.658,1.572 1.02,1.593 l 0.056,0 -0.103,0.329 -0.078,0.158 c -1.381,2.181 -3.427,5.007 -3.618,7.81 -0.205,2.748 0.599,5.394 1.934,7.235 -0.046,0.181 -0.101,0.396 -0.169,0.667 -0.193,0.159 -0.861,0.712 -1.11,1.322 -0.291,0.701 -0.291,2.113 -0.291,2.113 l 31.682,0 c 0,0 -0.078,-1.401 -0.338,-2.079 -0.193,-0.521 -0.78,-1.085 -1.019,-1.3 -0.011,-0.27 -0.045,-0.565 -0.101,-0.893 1.266,-1.775 1.989,-3.9 1.83,-6.511 -0.182,-2.848 -1.705,-5.969 -3.301,-8.365 l -0.012,-0.487 0.126,0 c 0.362,-0.021 1.242,-0.723 1.018,-1.593 -0.272,-1.085 -1.244,-1.323 -1.595,-1.323 l -0.09,0 c -0.104,-0.191 0.022,-0.158 -0.138,-0.328 l -0.124,-0.215 c -2.201,-4.136 -4.909,-11.718 -6.425,-17.627 -3.708,-0.73 -7.371,-1.298 -10.981,-1.713 -1.228,5.824 -3.692,13.834 -5.866,19.059 z"
             id="path33" /><path
             style="fill:#cccccc;stroke:#000000;stroke-width:3;stroke-linecap:round;stroke-linejoin:round;stroke-miterlimit:10"
             inkscape:connector-curvature="0"
             stroke-miterlimit="10"
             d="m 368.113,183.93 c 0.248,-0.035 2.757,-1.346 2.597,-3.461 -0.189,-2.645 -2.744,-3.605 -2.982,-3.605 l -5.165,0 -0.012,-0.078 c 3.256,-1.571 5.482,-4.94 5.482,-8.829 0,-5.403 -4.33,-9.779 -9.663,-9.779 -5.348,0 -9.679,4.375 -9.679,9.779 0,3.889 2.239,7.257 5.482,8.829 l -0.013,0.078 -5.23,0 c -0.25,0 -2.703,0.96 -2.895,3.605 -0.157,2.115 2.251,3.416 2.498,3.461 0.089,0 2.521,0 5.027,0 -0.123,0.771 -0.284,1.616 -0.472,2.508 3.61,0.415 7.273,0.983 10.981,1.713 -0.398,-1.552 -0.72,-2.994 -0.921,-4.221 2.534,0 4.885,0 4.965,0 z"
             id="path35" /></g><g
           id="g37"><path
             style="fill:#cccccc;stroke:#000000;stroke-width:3;stroke-linecap:round;stroke-linejoin:round;stroke-miterlimit:10"
             inkscape:connector-curvature="0"
             stroke-miterlimit="10"
             d="m 390.532,205.496 c -0.201,0.315 -0.349,0.599 -0.464,0.825 l -0.248,0 c -0.35,0 -1.322,0.226 -1.594,1.323 -0.226,0.87 0.657,1.572 1.02,1.593 l 0.054,0 -0.103,0.329 -0.075,0.158 c -1.38,2.181 -3.427,5.007 -3.618,7.81 -0.206,2.748 0.6,5.394 1.935,7.235 -0.048,0.181 -0.104,0.396 -0.173,0.667 -0.189,0.159 -0.858,0.712 -1.109,1.322 -0.289,0.701 -0.289,2.113 -0.289,2.113 l 31.683,0 c 0,0 -0.081,-1.401 -0.34,-2.079 -0.192,-0.521 -0.781,-1.085 -1.019,-1.3 -0.011,-0.27 -0.045,-0.565 -0.102,-0.893 1.268,-1.775 1.989,-3.9 1.832,-6.511 -0.182,-2.848 -1.706,-5.969 -3.301,-8.365 l -0.012,-0.487 0.124,0 c 0.361,-0.021 1.245,-0.723 1.019,-1.593 -0.272,-1.085 -1.244,-1.323 -1.595,-1.323 l -0.09,0 c -0.103,-0.191 0.023,-0.158 -0.136,-0.328 l -0.125,-0.215 c -0.696,-1.307 -1.442,-2.959 -2.186,-4.794 -5.289,-1.667 -11.12,-3.464 -17.639,-5.323 -1.08,3.567 -2.303,7.087 -3.449,9.836 z"
             id="path39" /><g
             id="g41"><path
               style="fill:#cccccc;stroke:#000000;stroke-width:3;stroke-linecap:round;stroke-linejoin:round;stroke-miterlimit:10"
               inkscape:connector-curvature="0"
               stroke-miterlimit="10"
               d="m 411.42,183.93 c 0.249,-0.035 2.76,-1.346 2.602,-3.461 -0.191,-2.645 -2.747,-3.605 -2.984,-3.605 l -5.166,0 -0.01,-0.078 c 3.254,-1.571 5.482,-4.94 5.482,-8.829 0,-5.403 -4.33,-9.779 -9.664,-9.779 -5.349,0 -9.679,4.375 -9.679,9.779 0,3.889 2.239,7.257 5.481,8.829 l -0.012,0.078 -5.231,0 c -0.249,0 -2.703,0.96 -2.894,3.605 -0.157,2.115 2.249,3.416 2.498,3.461 0.089,0 2.521,0 5.028,0 -0.509,3.159 -1.599,7.478 -2.89,11.731 6.519,1.859 12.35,3.655 17.639,5.323 -2.23,-5.496 -4.434,-12.631 -5.161,-17.054 2.533,0 4.885,0 4.961,0 z"
               id="path43" /></g></g><g
           id="g45"><path
             style="fill:#cccccc;stroke:#000000;stroke-width:3;stroke-linecap:round;stroke-linejoin:round;stroke-miterlimit:10"
             inkscape:connector-curvature="0"
             stroke-miterlimit="10"
             d="m 431.693,207.229 c -0.062,0.122 -0.117,0.257 -0.156,0.415 -0.227,0.87 0.656,1.572 1.019,1.593 l 0.054,0 -0.101,0.329 -0.078,0.158 c -1.38,2.181 -3.425,5.007 -3.616,7.81 -0.206,2.748 0.599,5.394 1.934,7.235 -0.047,0.181 -0.103,0.396 -0.171,0.667 -0.191,0.159 -0.862,0.712 -1.11,1.322 -0.293,0.701 -0.293,2.113 -0.293,2.113 l 31.684,0 c 0,0 -0.077,-1.401 -0.339,-2.079 -0.191,-0.521 -0.779,-1.085 -1.017,-1.3 -0.011,-0.27 -0.045,-0.565 -0.102,-0.893 1.266,-1.775 1.989,-3.9 1.831,-6.511 -0.156,-2.461 -1.315,-5.123 -2.658,-7.347 -8.613,0.882 -16.772,-0.623 -26.881,-3.512 z"
             id="path47" /><g
             id="g49"><path
               style="fill:#cccccc;stroke:#000000;stroke-width:3;stroke-linecap:round;stroke-linejoin:round;stroke-miterlimit:10"
               inkscape:connector-curvature="0"
               stroke-miterlimit="10"
               d="m 457.919,209.236 0.123,0 c 0.365,-0.021 1.244,-0.723 1.02,-1.593 -0.272,-1.085 -1.243,-1.323 -1.594,-1.323 l -0.091,0 c -0.104,-0.191 0.022,-0.158 -0.136,-0.328 l -0.125,-0.215 c -2.779,-5.222 -6.375,-15.948 -7.347,-21.848 2.532,0 4.884,0 4.962,0 0.249,-0.035 2.758,-1.346 2.6,-3.461 -0.19,-2.645 -2.746,-3.605 -2.982,-3.605 l -5.166,0 -0.013,-0.078 c 3.256,-1.571 5.483,-4.94 5.483,-8.829 0,-5.403 -4.331,-9.779 -9.664,-9.779 -5.348,0 -9.677,4.375 -9.677,9.779 0,3.889 2.237,7.257 5.48,8.829 l -0.012,0.078 -5.232,0 c -0.248,0 -2.702,0.96 -2.894,3.605 -0.157,2.115 2.249,3.416 2.498,3.461 0.089,0 2.521,0 5.029,0 -0.936,5.809 -3.832,15.541 -6.34,21.566 -0.202,0.315 -0.352,0.599 -0.464,0.825 l -0.247,0 c -0.301,0 -1.056,0.17 -1.438,0.908 10.108,2.889 18.268,4.395 26.88,3.512 -0.211,-0.351 -0.427,-0.691 -0.643,-1.018 l -0.01,-0.486 z"
               id="path51" /></g></g><g
           id="g53"><path
             style="opacity:0.2;fill:#ffffff;stroke:#000000;stroke-width:3;stroke-linecap:round;stroke-linejoin:round;stroke-miterlimit:10"
             inkscape:connector-curvature="0"
             stroke-miterlimit="10"
             d="m 281.492,183.93 c 0.248,-0.035 2.758,-1.346 2.602,-3.461 -0.193,-2.645 -2.748,-3.605 -2.986,-3.605 l -5.166,0 -0.01,-0.078 c 3.255,-1.571 5.482,-4.94 5.482,-8.829 0,-5.403 -4.33,-9.779 -9.664,-9.779 -5.348,0 -9.678,4.375 -9.678,9.779 0,3.889 2.238,7.257 5.482,8.829 l -0.013,0.078 -5.231,0 c -0.249,0 -2.703,0.96 -2.895,3.605 -0.158,2.115 2.25,3.416 2.498,3.461 0.09,0 2.521,0 5.029,0 -0.928,5.752 -3.773,15.346 -6.266,21.383 4.703,-2.547 11.26,-5.762 19.311,-8.857 -1.568,-4.485 -2.919,-9.25 -3.458,-12.525 2.534,-0.001 4.885,-0.001 4.963,-0.001 z"
             id="path55" /><path
             style="opacity:0.2;fill:#ffffff;stroke:#000000;stroke-width:3;stroke-linecap:round;stroke-linejoin:round;stroke-miterlimit:10"
             inkscape:connector-curvature="0"
             stroke-miterlimit="10"
             d="m 324.803,183.93 c 0.248,-0.035 2.759,-1.346 2.599,-3.461 -0.19,-2.645 -2.746,-3.605 -2.981,-3.605 l -5.169,0 -0.01,-0.078 c 3.256,-1.571 5.481,-4.94 5.481,-8.829 0,-5.403 -4.329,-9.779 -9.663,-9.779 -5.348,0 -9.677,4.375 -9.677,9.779 0,3.889 2.236,7.257 5.48,8.829 l -0.012,0.078 -5.232,0 c -0.249,0 -2.702,0.96 -2.893,3.605 -0.157,2.115 2.249,3.416 2.498,3.461 0.09,0 2.521,0 5.028,0 -0.199,1.236 -0.491,2.655 -0.846,4.173 3.532,-0.656 7.18,-1.213 10.94,-1.638 -0.209,-0.911 -0.382,-1.766 -0.51,-2.535 2.535,0 4.887,0 4.967,0 z"
             id="path57" /><path
             style="opacity:0.2;fill:#ffffff;stroke:#000000;stroke-width:3;stroke-linecap:round;stroke-linejoin:round;stroke-miterlimit:10"
             inkscape:connector-curvature="0"
             stroke-miterlimit="10"
             d="m 368.113,183.93 c 0.248,-0.035 2.757,-1.346 2.597,-3.461 -0.189,-2.645 -2.744,-3.605 -2.982,-3.605 l -5.165,0 -0.012,-0.078 c 3.256,-1.571 5.482,-4.94 5.482,-8.829 0,-5.403 -4.33,-9.779 -9.663,-9.779 -5.348,0 -9.679,4.375 -9.679,9.779 0,3.889 2.239,7.257 5.482,8.829 l -0.013,0.078 -5.23,0 c -0.25,0 -2.703,0.96 -2.895,3.605 -0.157,2.115 2.251,3.416 2.498,3.461 0.089,0 2.521,0 5.027,0 -0.123,0.771 -0.284,1.616 -0.472,2.508 3.61,0.415 7.273,0.983 10.981,1.713 -0.398,-1.552 -0.72,-2.994 -0.921,-4.221 2.534,0 4.885,0 4.965,0 z"
             id="path59" /><path
             style="opacity:0.2;fill:#ffffff;stroke:#000000;stroke-width:3;stroke-linecap:round;stroke-linejoin:round;stroke-miterlimit:10"
             inkscape:connector-curvature="0"
             stroke-miterlimit="10"
             d="m 411.42,183.93 c 0.249,-0.035 2.76,-1.346 2.602,-3.461 -0.191,-2.645 -2.747,-3.605 -2.984,-3.605 l -5.166,0 -0.01,-0.078 c 3.254,-1.571 5.482,-4.94 5.482,-8.829 0,-5.403 -4.33,-9.779 -9.664,-9.779 -5.349,0 -9.679,4.375 -9.679,9.779 0,3.889 2.239,7.257 5.481,8.829 l -0.012,0.078 -5.231,0 c -0.249,0 -2.703,0.96 -2.894,3.605 -0.157,2.115 2.249,3.416 2.498,3.461 0.089,0 2.521,0 5.028,0 -0.509,3.159 -1.599,7.478 -2.89,11.731 6.519,1.859 12.35,3.655 17.639,5.323 -2.23,-5.496 -4.434,-12.631 -5.161,-17.054 2.533,0 4.885,0 4.961,0 z"
             id="path61" /><path
             style="opacity:0.2;fill:#ffffff;stroke:#000000;stroke-width:3;stroke-linecap:round;stroke-linejoin:round;stroke-miterlimit:10"
             inkscape:connector-curvature="0"
             stroke-miterlimit="10"
             d="m 457.919,209.236 0.123,0 c 0.365,-0.021 1.244,-0.723 1.02,-1.593 -0.272,-1.085 -1.243,-1.323 -1.594,-1.323 l -0.091,0 c -0.104,-0.191 0.022,-0.158 -0.136,-0.328 l -0.125,-0.215 c -2.779,-5.222 -6.375,-15.948 -7.347,-21.848 2.532,0 4.884,0 4.962,0 0.249,-0.035 2.758,-1.346 2.6,-3.461 -0.19,-2.645 -2.746,-3.605 -2.982,-3.605 l -5.166,0 -0.013,-0.078 c 3.256,-1.571 5.483,-4.94 5.483,-8.829 0,-5.403 -4.331,-9.779 -9.664,-9.779 -5.348,0 -9.677,4.375 -9.677,9.779 0,3.889 2.237,7.257 5.48,8.829 l -0.012,0.078 -5.232,0 c -0.248,0 -2.702,0.96 -2.894,3.605 -0.157,2.115 2.249,3.416 2.498,3.461 0.089,0 2.521,0 5.029,0 -0.936,5.809 -3.832,15.541 -6.34,21.566 -0.202,0.315 -0.352,0.599 -0.464,0.825 l -0.247,0 c -0.301,0 -1.056,0.17 -1.438,0.908 10.108,2.889 18.268,4.395 26.88,3.512 -0.211,-0.351 -0.427,-0.691 -0.643,-1.018 l -0.01,-0.486 z"
             id="path63" /></g></g><g
         id="g65"><path
           style="fill:#333333"
           inkscape:connector-curvature="0"
           d="m 260.604,205.496 c -0.201,0.315 -0.351,0.599 -0.463,0.825 l -0.25,0 c -0.35,0 -1.321,0.226 -1.593,1.323 -0.226,0.87 0.656,1.572 1.019,1.593 l 0.055,0 -0.102,0.329 -0.078,0.158 c -1.381,2.181 -3.426,5.007 -3.617,7.81 -0.206,2.748 0.598,5.394 1.934,7.235 -0.047,0.181 -0.102,0.396 -0.172,0.667 -0.189,0.159 -0.858,0.712 -1.109,1.322 -0.291,0.701 -0.291,2.113 -0.291,2.113 l 31.684,0 c 0,0 -0.078,-1.401 -0.339,-2.079 -0.192,-0.521 -0.78,-1.085 -1.018,-1.3 -0.011,-0.27 -0.046,-0.565 -0.102,-0.893 1.267,-1.775 1.989,-3.9 1.831,-6.511 -0.182,-2.848 -1.707,-5.969 -3.301,-8.365 l -0.011,-0.487 0.124,0 c 0.361,-0.021 1.242,-0.723 1.018,-1.593 -0.271,-1.085 -1.244,-1.323 -1.595,-1.323 l -0.09,0 c -0.103,-0.191 0.022,-0.158 -0.136,-0.328 l -0.124,-0.215 c -1.237,-2.322 -2.633,-5.733 -3.89,-9.323 -8.051,3.096 -14.607,6.31 -19.311,8.857 -0.025,0.06 -0.048,0.126 -0.073,0.185 z"
           id="path67" /><path
           style="fill:#333333"
           inkscape:connector-curvature="0"
           d="m 281.492,183.93 c 0.248,-0.035 2.758,-1.346 2.602,-3.461 -0.193,-2.645 -2.748,-3.605 -2.986,-3.605 l -5.166,0 -0.01,-0.078 c 3.255,-1.571 5.482,-4.94 5.482,-8.829 0,-5.403 -4.33,-9.779 -9.664,-9.779 -5.348,0 -9.678,4.375 -9.678,9.779 0,3.889 2.238,7.257 5.482,8.829 l -0.013,0.078 -5.231,0 c -0.249,0 -2.703,0.96 -2.895,3.605 -0.158,2.115 2.25,3.416 2.498,3.461 0.09,0 2.521,0 5.029,0 -0.928,5.752 -3.773,15.346 -6.266,21.383 4.703,-2.547 11.26,-5.762 19.311,-8.857 -1.568,-4.485 -2.919,-9.25 -3.458,-12.525 2.534,-0.001 4.885,-0.001 4.963,-0.001 z"
           id="path69" /></g><g
         id="g71"><path
           style="fill:#b3b3b3"
           inkscape:connector-curvature="0"
           d="m 303.912,205.496 c -0.201,0.315 -0.35,0.599 -0.462,0.825 l -0.25,0 c -0.349,0 -1.321,0.226 -1.593,1.323 -0.226,0.87 0.657,1.572 1.02,1.593 l 0.055,0 -0.103,0.329 -0.077,0.158 c -1.381,2.181 -3.427,5.007 -3.617,7.81 -0.207,2.748 0.598,5.394 1.933,7.235 -0.047,0.181 -0.102,0.396 -0.171,0.667 -0.19,0.159 -0.859,0.712 -1.108,1.322 -0.291,0.701 -0.291,2.113 -0.291,2.113 l 31.683,0 c 0,0 -0.082,-1.401 -0.339,-2.079 -0.192,-0.521 -0.781,-1.085 -1.019,-1.3 -0.012,-0.27 -0.045,-0.565 -0.101,-0.893 1.267,-1.775 1.989,-3.9 1.831,-6.511 -0.183,-2.848 -1.708,-5.969 -3.302,-8.365 l -0.012,-0.487 0.125,0 c 0.361,-0.021 1.244,-0.723 1.018,-1.593 -0.271,-1.085 -1.244,-1.323 -1.595,-1.323 l -0.091,0 c -0.101,-0.191 0.023,-0.158 -0.135,-0.328 l -0.124,-0.215 c -2.418,-4.541 -5.451,-13.241 -6.84,-19.313 -3.761,0.425 -7.408,0.981 -10.94,1.638 -1.309,5.615 -3.518,12.65 -5.495,17.394 z"
           id="path73" /><path
           style="fill:#b3b3b3"
           inkscape:connector-curvature="0"
           d="m 324.803,183.93 c 0.248,-0.035 2.759,-1.346 2.599,-3.461 -0.19,-2.645 -2.746,-3.605 -2.981,-3.605 l -5.169,0 -0.01,-0.078 c 3.256,-1.571 5.481,-4.94 5.481,-8.829 0,-5.403 -4.329,-9.779 -9.663,-9.779 -5.348,0 -9.677,4.375 -9.677,9.779 0,3.889 2.236,7.257 5.48,8.829 l -0.012,0.078 -5.232,0 c -0.249,0 -2.702,0.96 -2.893,3.605 -0.157,2.115 2.249,3.416 2.498,3.461 0.09,0 2.521,0 5.028,0 -0.199,1.236 -0.491,2.655 -0.846,4.173 3.532,-0.656 7.18,-1.213 10.94,-1.638 -0.209,-0.911 -0.382,-1.766 -0.51,-2.535 2.535,0 4.887,0 4.967,0 z"
           id="path75" /></g><g
         id="g77"><path
           style="fill:#b3b3b3"
           inkscape:connector-curvature="0"
           d="m 347.224,205.496 c -0.203,0.315 -0.351,0.599 -0.464,0.825 l -0.248,0 c -0.351,0 -1.324,0.226 -1.595,1.323 -0.227,0.87 0.658,1.572 1.02,1.593 l 0.056,0 -0.103,0.329 -0.078,0.158 c -1.381,2.181 -3.427,5.007 -3.618,7.81 -0.205,2.748 0.599,5.394 1.934,7.235 -0.046,0.181 -0.101,0.396 -0.169,0.667 -0.193,0.159 -0.861,0.712 -1.11,1.322 -0.291,0.701 -0.291,2.113 -0.291,2.113 l 31.682,0 c 0,0 -0.078,-1.401 -0.338,-2.079 -0.193,-0.521 -0.78,-1.085 -1.019,-1.3 -0.011,-0.27 -0.045,-0.565 -0.101,-0.893 1.266,-1.775 1.989,-3.9 1.83,-6.511 -0.182,-2.848 -1.705,-5.969 -3.301,-8.365 l -0.012,-0.487 0.126,0 c 0.362,-0.021 1.242,-0.723 1.018,-1.593 -0.272,-1.085 -1.244,-1.323 -1.595,-1.323 l -0.09,0 c -0.104,-0.191 0.022,-0.158 -0.138,-0.328 l -0.124,-0.215 c -2.201,-4.136 -4.909,-11.718 -6.425,-17.627 -3.708,-0.73 -7.371,-1.298 -10.981,-1.713 -1.228,5.824 -3.692,13.834 -5.866,19.059 z"
           id="path79" /><path
           style="fill:#b3b3b3"
           inkscape:connector-curvature="0"
           d="m 368.113,183.93 c 0.248,-0.035 2.757,-1.346 2.597,-3.461 -0.189,-2.645 -2.744,-3.605 -2.982,-3.605 l -5.165,0 -0.012,-0.078 c 3.256,-1.571 5.482,-4.94 5.482,-8.829 0,-5.403 -4.33,-9.779 -9.663,-9.779 -5.348,0 -9.679,4.375 -9.679,9.779 0,3.889 2.239,7.257 5.482,8.829 l -0.013,0.078 -5.23,0 c -0.25,0 -2.703,0.96 -2.895,3.605 -0.157,2.115 2.251,3.416 2.498,3.461 0.089,0 2.521,0 5.027,0 -0.123,0.771 -0.284,1.616 -0.472,2.508 3.61,0.415 7.273,0.983 10.981,1.713 -0.398,-1.552 -0.72,-2.994 -0.921,-4.221 2.534,0 4.885,0 4.965,0 z"
           id="path81" /></g><g
         id="g83"><path
           style="fill:#b3b3b3"
           inkscape:connector-curvature="0"
           d="m 390.532,205.496 c -0.201,0.315 -0.349,0.599 -0.464,0.825 l -0.248,0 c -0.35,0 -1.322,0.226 -1.594,1.323 -0.226,0.87 0.657,1.572 1.02,1.593 l 0.054,0 -0.103,0.329 -0.075,0.158 c -1.38,2.181 -3.427,5.007 -3.618,7.81 -0.206,2.748 0.6,5.394 1.935,7.235 -0.048,0.181 -0.104,0.396 -0.173,0.667 -0.189,0.159 -0.858,0.712 -1.109,1.322 -0.289,0.701 -0.289,2.113 -0.289,2.113 l 31.683,0 c 0,0 -0.081,-1.401 -0.34,-2.079 -0.192,-0.521 -0.781,-1.085 -1.019,-1.3 -0.011,-0.27 -0.045,-0.565 -0.102,-0.893 1.268,-1.775 1.989,-3.9 1.832,-6.511 -0.182,-2.848 -1.706,-5.969 -3.301,-8.365 l -0.012,-0.487 0.124,0 c 0.361,-0.021 1.245,-0.723 1.019,-1.593 -0.272,-1.085 -1.244,-1.323 -1.595,-1.323 l -0.09,0 c -0.103,-0.191 0.023,-0.158 -0.136,-0.328 l -0.125,-0.215 c -0.696,-1.307 -1.442,-2.959 -2.186,-4.794 -5.289,-1.667 -11.12,-3.464 -17.639,-5.323 -1.08,3.567 -2.303,7.087 -3.449,9.836 z"
           id="path85" /><g
           id="g87"><path
             style="fill:#b3b3b3"
             inkscape:connector-curvature="0"
             d="m 411.42,183.93 c 0.249,-0.035 2.76,-1.346 2.602,-3.461 -0.191,-2.645 -2.747,-3.605 -2.984,-3.605 l -5.166,0 -0.01,-0.078 c 3.254,-1.571 5.482,-4.94 5.482,-8.829 0,-5.403 -4.33,-9.779 -9.664,-9.779 -5.349,0 -9.679,4.375 -9.679,9.779 0,3.889 2.239,7.257 5.481,8.829 l -0.012,0.078 -5.231,0 c -0.249,0 -2.703,0.96 -2.894,3.605 -0.157,2.115 2.249,3.416 2.498,3.461 0.089,0 2.521,0 5.028,0 -0.509,3.159 -1.599,7.478 -2.89,11.731 6.519,1.859 12.35,3.655 17.639,5.323 -2.23,-5.496 -4.434,-12.631 -5.161,-17.054 2.533,0 4.885,0 4.961,0 z"
             id="path89" /></g></g><g
         id="g91"><path
           style="fill:#b3b3b3"
           inkscape:connector-curvature="0"
           d="m 431.693,207.229 c -0.062,0.122 -0.117,0.257 -0.156,0.415 -0.227,0.87 0.656,1.572 1.019,1.593 l 0.054,0 -0.101,0.329 -0.078,0.158 c -1.38,2.181 -3.425,5.007 -3.616,7.81 -0.206,2.748 0.599,5.394 1.934,7.235 -0.047,0.181 -0.103,0.396 -0.171,0.667 -0.191,0.159 -0.862,0.712 -1.11,1.322 -0.293,0.701 -0.293,2.113 -0.293,2.113 l 31.684,0 c 0,0 -0.077,-1.401 -0.339,-2.079 -0.191,-0.521 -0.779,-1.085 -1.017,-1.3 -0.011,-0.27 -0.045,-0.565 -0.102,-0.893 1.266,-1.775 1.989,-3.9 1.831,-6.511 -0.156,-2.461 -1.315,-5.123 -2.658,-7.347 -8.613,0.882 -16.772,-0.623 -26.881,-3.512 z"
           id="path93" /><g
           id="g95"><path
             style="fill:#b3b3b3"
             inkscape:connector-curvature="0"
             d="m 457.919,209.236 0.123,0 c 0.365,-0.021 1.244,-0.723 1.02,-1.593 -0.272,-1.085 -1.243,-1.323 -1.594,-1.323 l -0.091,0 c -0.104,-0.191 0.022,-0.158 -0.136,-0.328 l -0.125,-0.215 c -2.779,-5.222 -6.375,-15.948 -7.347,-21.848 2.532,0 4.884,0 4.962,0 0.249,-0.035 2.758,-1.346 2.6,-3.461 -0.19,-2.645 -2.746,-3.605 -2.982,-3.605 l -5.166,0 -0.013,-0.078 c 3.256,-1.571 5.483,-4.94 5.483,-8.829 0,-5.403 -4.331,-9.779 -9.664,-9.779 -5.348,0 -9.677,4.375 -9.677,9.779 0,3.889 2.237,7.257 5.48,8.829 l -0.012,0.078 -5.232,0 c -0.248,0 -2.702,0.96 -2.894,3.605 -0.157,2.115 2.249,3.416 2.498,3.461 0.089,0 2.521,0 5.029,0 -0.936,5.809 -3.832,15.541 -6.34,21.566 -0.202,0.315 -0.352,0.599 -0.464,0.825 l -0.247,0 c -0.301,0 -1.056,0.17 -1.438,0.908 10.108,2.889 18.268,4.395 26.88,3.512 -0.211,-0.351 -0.427,-0.691 -0.643,-1.018 l -0.01,-0.486 z"
             id="path97" /></g></g><g
         style="opacity:0.7"
         id="g99"><path
           style="opacity:0.2;fill:#ffffff"
           inkscape:connector-curvature="0"
           d="m 281.492,183.93 c 0.248,-0.035 2.758,-1.346 2.602,-3.461 -0.193,-2.645 -2.748,-3.605 -2.986,-3.605 l -5.166,0 -0.01,-0.078 c 3.255,-1.571 5.482,-4.94 5.482,-8.829 0,-5.403 -4.33,-9.779 -9.664,-9.779 -5.348,0 -9.678,4.375 -9.678,9.779 0,3.889 2.238,7.257 5.482,8.829 l -0.013,0.078 -5.231,0 c -0.249,0 -2.703,0.96 -2.895,3.605 -0.158,2.115 2.25,3.416 2.498,3.461 0.09,0 2.521,0 5.029,0 -0.928,5.752 -3.773,15.346 -6.266,21.383 4.703,-2.547 11.26,-5.762 19.311,-8.857 -1.568,-4.485 -2.919,-9.25 -3.458,-12.525 2.534,-0.001 4.885,-0.001 4.963,-0.001 z"
           id="path101" /><path
           style="opacity:0.2;fill:#ffffff"
           inkscape:connector-curvature="0"
           d="m 324.803,183.93 c 0.248,-0.035 2.759,-1.346 2.599,-3.461 -0.19,-2.645 -2.746,-3.605 -2.981,-3.605 l -5.169,0 -0.01,-0.078 c 3.256,-1.571 5.481,-4.94 5.481,-8.829 0,-5.403 -4.329,-9.779 -9.663,-9.779 -5.348,0 -9.677,4.375 -9.677,9.779 0,3.889 2.236,7.257 5.48,8.829 l -0.012,0.078 -5.232,0 c -0.249,0 -2.702,0.96 -2.893,3.605 -0.157,2.115 2.249,3.416 2.498,3.461 0.09,0 2.521,0 5.028,0 -0.199,1.236 -0.491,2.655 -0.846,4.173 3.532,-0.656 7.18,-1.213 10.94,-1.638 -0.209,-0.911 -0.382,-1.766 -0.51,-2.535 2.535,0 4.887,0 4.967,0 z"
           id="path103" /><path
           style="opacity:0.2;fill:#ffffff"
           inkscape:connector-curvature="0"
           d="m 368.113,183.93 c 0.248,-0.035 2.757,-1.346 2.597,-3.461 -0.189,-2.645 -2.744,-3.605 -2.982,-3.605 l -5.165,0 -0.012,-0.078 c 3.256,-1.571 5.482,-4.94 5.482,-8.829 0,-5.403 -4.33,-9.779 -9.663,-9.779 -5.348,0 -9.679,4.375 -9.679,9.779 0,3.889 2.239,7.257 5.482,8.829 l -0.013,0.078 -5.23,0 c -0.25,0 -2.703,0.96 -2.895,3.605 -0.157,2.115 2.251,3.416 2.498,3.461 0.089,0 2.521,0 5.027,0 -0.123,0.771 -0.284,1.616 -0.472,2.508 3.61,0.415 7.273,0.983 10.981,1.713 -0.398,-1.552 -0.72,-2.994 -0.921,-4.221 2.534,0 4.885,0 4.965,0 z"
           id="path105" /><path
           style="opacity:0.2;fill:#ffffff"
           inkscape:connector-curvature="0"
           d="m 411.42,183.93 c 0.249,-0.035 2.76,-1.346 2.602,-3.461 -0.191,-2.645 -2.747,-3.605 -2.984,-3.605 l -5.166,0 -0.01,-0.078 c 3.254,-1.571 5.482,-4.94 5.482,-8.829 0,-5.403 -4.33,-9.779 -9.664,-9.779 -5.349,0 -9.679,4.375 -9.679,9.779 0,3.889 2.239,7.257 5.481,8.829 l -0.012,0.078 -5.231,0 c -0.249,0 -2.703,0.96 -2.894,3.605 -0.157,2.115 2.249,3.416 2.498,3.461 0.089,0 2.521,0 5.028,0 -0.509,3.159 -1.599,7.478 -2.89,11.731 6.519,1.859 12.35,3.655 17.639,5.323 -2.23,-5.496 -4.434,-12.631 -5.161,-17.054 2.533,0 4.885,0 4.961,0 z"
           id="path107" /><path
           style="opacity:0.2;fill:#ffffff"
           inkscape:connector-curvature="0"
           d="m 457.919,209.236 0.123,0 c 0.365,-0.021 1.244,-0.723 1.02,-1.593 -0.272,-1.085 -1.243,-1.323 -1.594,-1.323 l -0.091,0 c -0.104,-0.191 0.022,-0.158 -0.136,-0.328 l -0.125,-0.215 c -2.779,-5.222 -6.375,-15.948 -7.347,-21.848 2.532,0 4.884,0 4.962,0 0.249,-0.035 2.758,-1.346 2.6,-3.461 -0.19,-2.645 -2.746,-3.605 -2.982,-3.605 l -5.166,0 -0.013,-0.078 c 3.256,-1.571 5.483,-4.94 5.483,-8.829 0,-5.403 -4.331,-9.779 -9.664,-9.779 -5.348,0 -9.677,4.375 -9.677,9.779 0,3.889 2.237,7.257 5.48,8.829 l -0.012,0.078 -5.232,0 c -0.248,0 -2.702,0.96 -2.894,3.605 -0.157,2.115 2.249,3.416 2.498,3.461 0.089,0 2.521,0 5.029,0 -0.936,5.809 -3.832,15.541 -6.34,21.566 -0.202,0.315 -0.352,0.599 -0.464,0.825 l -0.247,0 c -0.301,0 -1.056,0.17 -1.438,0.908 10.108,2.889 18.268,4.395 26.88,3.512 -0.211,-0.351 -0.427,-0.691 -0.643,-1.018 l -0.01,-0.486 z"
           id="path109" /></g></g><g
       id="g111"><path
         style="fill:#333333"
         inkscape:connector-curvature="0"
         d="m 91.854,304.635 c -2.156,2.225 -4.802,3.334 -7.938,3.334 -3.136,0 -5.781,-1.109 -7.937,-3.334 -2.155,-2.22 -3.233,-4.83 -3.233,-7.84 l 0,-103.48 -11.368,10.189 c -2.092,1.833 -4.574,2.746 -7.448,2.746 -3.399,0 -6.208,-1.239 -8.427,-3.726 -1.96,-2.478 -2.875,-5.157 -2.743,-8.034 0.259,-3.135 1.5,-5.747 3.724,-7.84 l 29.985,-26.655 c 2.221,-1.825 4.703,-2.742 7.447,-2.742 3.136,0 5.782,1.111 7.938,3.332 2.155,2.223 3.234,4.836 3.234,7.84 l 0,128.37 c 0,3.01 -1.078,5.62 -3.234,7.84 z"
         id="path113" /><path
         style="fill:#333333"
         inkscape:connector-curvature="0"
         d="m 206.799,307.969 -43.117,0 c -12.15,0 -22.342,-4.245 -30.574,-12.74 -8.495,-8.232 -12.738,-18.422 -12.738,-30.573 l 0,-64.09 c 0,-12.148 4.243,-22.341 12.738,-30.573 8.232,-8.49 18.424,-12.739 30.574,-12.739 l 66.244,0 c 3.136,0 5.812,1.111 8.035,3.332 2.221,2.223 3.332,4.836 3.332,7.84 0,3.136 -1.111,5.782 -3.332,7.937 -2.223,2.157 -4.899,3.233 -8.035,3.233 l -66.244,0 c -5.751,0 -10.681,2.059 -14.797,6.174 -4.115,4.117 -6.172,9.05 -6.172,14.796 l 0,19.599 0.195,-0.193 c 6.664,-3.529 13.587,-5.292 20.775,-5.292 l 43.117,0 c 11.888,0.263 22.079,4.505 30.574,12.738 8.493,8.494 12.74,18.686 12.74,30.574 l 0,6.664 c 0,12.151 -4.247,22.341 -12.74,30.573 -8.496,8.495 -18.687,12.74 -30.575,12.74 z m 0,-70.752 -43.117,0 c -5.751,0 -10.681,2.025 -14.797,6.074 -4.115,4.051 -6.172,8.951 -6.172,14.7 l 0,6.664 c 0,5.751 2.057,10.68 6.172,14.797 4.117,4.116 9.046,6.172 14.797,6.172 l 43.117,0 c 5.749,0 10.649,-2.056 14.699,-6.172 4.049,-4.117 6.076,-9.046 6.076,-14.797 l 0,-6.664 c 0,-5.749 -2.027,-10.649 -6.076,-14.7 -4.05,-4.048 -8.95,-6.074 -14.699,-6.074 z"
         id="path115" /></g></g></svg>