<?xml version="1.0" encoding="UTF-8" standalone="no"?>
<svg
   xmlns:dc="http://purl.org/dc/elements/1.1/"
   xmlns:cc="http://creativecommons.org/ns#"
   xmlns:rdf="http://www.w3.org/1999/02/22-rdf-syntax-ns#"
   xmlns:svg="http://www.w3.org/2000/svg"
   xmlns="http://www.w3.org/2000/svg"
   version="1.1"
   id="svg4192"
   viewBox="0 0 208.205 177.791"
   height="177.791"
   width="208.205">
  <defs
     id="defs4194" />
  <metadata
     id="metadata4197">
    <rdf:RDF>
      <cc:Work
         rdf:about="">
        <dc:format>image/svg+xml</dc:format>
        <dc:type
           rdf:resource="http://purl.org/dc/dcmitype/StillImage" />
        <dc:title></dc:title>
      </cc:Work>
    </rdf:RDF>
  </metadata>
  <g
     transform="translate(0,-874.57116)"
     id="layer1">
    <path
       id="path4211"
       d="m 81.76423,1048.1937 c 0.43208,-2.702 2.13356,-6.4799 3.78107,-8.3952 l 2.99548,-3.4825 2.58348,3.1055 2.58348,3.1054 0.0416,-5.3125 0.0416,-5.3125 7.57377,0 c 8.59397,0 9.03586,-1.918 0.7289,-3.1637 -8.82856,-1.3239 -9.08571,-1.7441 -6.58088,-10.7535 2.61497,-9.4055 6.96798,-19.83282 8.27948,-19.83282 0.51888,0 2.9628,0.84375 5.43093,1.87502 10.88072,4.5462 14.29095,0.7127 5.8178,-6.54001 -5.46262,-4.6758 -6.65516,-9.08501 -2.45719,-9.08501 1.39855,0 8.90438,3.65273 16.67963,8.11718 13.14311,7.54664 22.02756,11.05594 22.02756,8.70084 0,-0.5469 -2.91369,-3.60414 -6.47487,-6.79375 -4.64754,-4.16263 -6.24609,-6.39548 -5.66423,-7.91178 1.47138,-3.83437 7.83142,-2.29431 28.62767,6.93207 23.02007,10.21296 30.14281,11.45856 36.85727,6.44554 8.7163,-6.50766 2.79436,-10.1189 -32.69052,-19.93494 -28.27627,-7.82195 -38.499,-11.61413 -48.15532,-17.8635 -11.33011,-7.33262 -31.95829,-29.22278 -48.476,-51.44166 -19.58659,-26.34699 -24.2073,-31.70897 -29.48269,-34.2123 -8.45467,-4.01201 -23.93256,-1.22173 -28.43819,5.12669 -1.17531,1.65601 -3.82976,2.68039 -8.2979202,3.20224 -10.97358,1.28164 -12.04481,2.91532 -3.0695,4.6811 4.2703602,0.84014 7.7643002,2.09914 7.7643002,2.79777 0,0.69863 2.53125,3.97635 5.625,7.28382 6.19471,6.62265 6.48055,7.90311 3.76352,16.85952 -1.02379,3.37489 -1.86613,9.51116 -1.87183,13.63616 -0.0113,8.23992 4.6156,27.21072 8.81647,36.1477 4.65096,9.89449 16.22355,17.76992 31.27003,21.28002 4.20809,0.98168 7.76661,1.96204 7.90782,2.17858 0.14123,0.21653 2.05277,2.72465 4.24788,5.57358 2.19511,2.84893 3.99111,5.53154 3.99111,5.96134 0,0.4299 -5.06844,8.0203 -11.26319,16.8677 -11.08729,15.835 -11.35071,16.0993 -16.86905,16.9268 -4.8222,0.7232 -14.1433,6.3304 -12.78355,7.6902 0.24189,0.2418 3.39496,-0.6831 7.00682,-2.0555 7.08128,-2.6907 8.90897,-2.4079 8.90897,1.3784 0,3.5339 1.45576,3.0355 8.02556,-2.7474 3.23264,-2.8455 7.95247,-5.9146 10.48849,-6.8202 l 4.61095,-1.6465 -4.6875,-0.055 c -2.57813,-0.03 -4.6875,-0.2478 -4.6875,-0.4837 0,-0.2359 3.93075,-7.4078 8.73501,-15.9375 4.80425,-8.5298 8.74175,-16.98581 8.75,-18.79123 l 0.015,-3.28259 5.625,2.02274 c 3.09375,1.1125 5.625,2.616 5.625,3.34111 0,0.7251 -1.16021,6.63427 -2.57824,13.13147 -3.26174,14.9448 -6.48409,22.4449 -9.64321,22.4449 -1.29911,0 -4.56511,1.9962 -7.25779,4.436 -2.73656,2.4796 -3.6916,3.8578 -2.16544,3.125 4.65796,-2.2366 5.39468,-1.5722 5.39468,4.8652 0,7.6112 1.90634,9.2881 2.97332,2.6156 z"
       style="fill:#f8c63d;fill-opacity:1" />
  </g>
</svg>
