<?xml version="1.0" encoding="UTF-8" standalone="no"?>
<svg
   xmlns:dc="http://purl.org/dc/elements/1.1/"
   xmlns:cc="http://creativecommons.org/ns#"
   xmlns:rdf="http://www.w3.org/1999/02/22-rdf-syntax-ns#"
   xmlns:svg="http://www.w3.org/2000/svg"
   xmlns="http://www.w3.org/2000/svg"
   id="svg2"
   version="1.1"
   xml:space="preserve"
   width="325"
   height="710"
   viewBox="0 0 325 710"><metadata
     id="metadata8"><rdf:RDF><cc:Work
         rdf:about=""><dc:format>image/svg+xml</dc:format><dc:type
           rdf:resource="http://purl.org/dc/dcmitype/StillImage" /><dc:title></dc:title></cc:Work></rdf:RDF></metadata><defs
     id="defs6"><clipPath
       clipPathUnits="userSpaceOnUse"
       id="clipPath16"><path
         d="m 0,551.395 499.377,0 L 499.377,0 0,0 0,551.395 Z"
         id="path18" /></clipPath><clipPath
       clipPathUnits="userSpaceOnUse"
       id="clipPath28"><path
         d="M 130.445,426.041 C 130.17,360.436 175.35,317.319 216.482,275.838 l 0,0 C 177.439,237.124 129.467,192.777 129.215,132.841 l 0,0 C 128.915,61.564 184.583,9.494 248.573,9.226 l 0,0 c 69.654,-0.293 120.075,48.093 120.361,116.131 l 0,0 c 0.275,65.604 -44.904,108.721 -86.04,150.202 l 0,0 c 39.039,38.713 87.017,83.061 87.268,142.995 l 0,0 c 0.3,71.276 -55.373,123.348 -119.355,123.615 l 0,0 c -0.217,10e-4 -0.424,10e-4 -0.641,10e-4 l 0,0 C 180.844,542.166 130.73,494.671 130.445,426.041 m 48.582,-3.444 c 0.167,39.685 30.256,68.719 71.564,68.546 l 0,0 c 38.067,-0.159 71.147,-31.076 70.979,-71.571 l 0,0 c -0.198,-46.977 -42.457,-80.009 -71.744,-111.474 l 0,0 c -31.463,30.909 -70.992,68.334 -70.799,114.499 m 69.76,-362.345 c -38.071,0.16 -71.149,31.075 -70.978,71.574 l 0,0 c 0.196,46.976 42.453,80.009 71.745,111.474 l 0,0 c 31.453,-30.909 70.989,-68.335 70.798,-114.501 l 0,0 C 320.184,89.229 290.273,60.25 249.154,60.252 l 0,0 c -0.121,0 -0.246,0 -0.367,0"
         id="path30" /></clipPath></defs><g
     id="g10"
     transform="matrix(1.3333333,0,0,-1.3333333,0,709.99997)"><g
       transform="matrix(1.0116223,0,0,0.99916379,-130.71525,-9.2171846)"
       id="g12"><g
         id="g14"
         clip-path="url(#clipPath16)"><g
           id="g20"
           transform="translate(250.5917,491.1432)"><path
             d="m 0,0 c -41.308,0.173 -71.398,-28.861 -71.564,-68.547 -0.194,-46.164 39.335,-83.589 70.798,-114.499 29.288,31.466 71.546,64.498 71.744,111.475 C 71.147,-31.076 38.066,-0.159 0,0 m -1.038,-247.843 c -29.292,-31.466 -71.549,-64.498 -71.745,-111.474 -0.17,-40.498 32.908,-71.415 70.979,-71.574 41.305,-0.173 71.396,28.861 71.564,68.547 0.192,46.166 -39.344,83.591 -70.798,114.501 m 33.341,32.259 c 41.135,-41.481 86.314,-84.598 86.04,-150.203 -0.286,-68.037 -50.708,-116.423 -120.362,-116.13 -63.99,0.268 -119.658,52.339 -119.358,123.615 0.252,59.936 48.225,104.283 87.267,142.997 -41.132,41.481 -86.312,84.598 -86.037,150.203 C -119.861,3.742 -69.444,51.319 0.215,51.026 64.198,50.758 119.87,-1.313 119.57,-72.589 119.319,-132.523 71.341,-176.872 32.303,-215.584"
             style="fill:#b7c5d9;fill-opacity:1;fill-rule:nonzero;stroke:none"
             id="path22" /></g></g></g><g
       transform="matrix(1.0116223,0,0,0.99916477,0,-18.96951)"
       id="g24"><g
         transform="translate(-129.21349,9.7604908)"
         id="g26"
         clip-path="url(#clipPath28)"><g
           id="g32"
           transform="translate(216.4799,275.8361)"><path
             d="m 0,0 c -41.133,41.481 -86.312,84.598 -86.037,150.203 0.288,68.846 50.705,116.423 120.363,116.13 63.983,-0.268 119.656,-52.339 119.356,-123.615 l -31.708,-36.631 -16.886,37.646 c 0.171,40.499 -32.91,71.415 -70.976,71.574 C -7.196,215.48 -37.287,186.446 -37.453,146.76 -37.646,100.596 1.883,63.171 33.346,32.261"
             style="fill:#d6daf0;fill-opacity:1;fill-rule:nonzero;stroke:none"
             id="path34" /></g><g
           id="g36"
           transform="translate(282.8947,275.5592)"><path
             d="m 0,0 c 41.133,-41.481 86.312,-84.598 86.038,-150.203 -0.289,-68.846 -50.706,-116.423 -120.364,-116.13 -63.983,0.268 -119.656,52.339 -119.356,123.615 l 31.708,36.631 16.886,-37.646 c -0.171,-40.499 32.91,-71.415 70.976,-71.574 41.308,-0.173 71.399,28.861 71.565,68.547 0.193,46.164 -39.336,83.589 -70.799,114.499"
             style="fill:#34345c;fill-opacity:1;fill-rule:nonzero;stroke:none"
             id="path38" /></g></g></g></g></svg>