<?xml version="1.0" encoding="utf-8"?>
<!-- Generator: Adobe Illustrator 17.0.0, SVG Export Plug-In . SVG Version: 6.00 Build 0)  -->
<!DOCTYPE svg PUBLIC "-//W3C//DTD SVG 1.1//EN" "http://www.w3.org/Graphics/SVG/1.1/DTD/svg11.dtd">
<svg version="1.1" id="Layer_1" xmlns="http://www.w3.org/2000/svg" xmlns:xlink="http://www.w3.org/1999/xlink" x="0px" y="0px"
	 width="117.389px" height="235.042px" viewBox="-19.908 -239.5 117.389 235.042"
	 enable-background="new -19.908 -239.5 117.389 235.042" xml:space="preserve">
<g>
	<g>
		<g>
			<g>
				<g>
					<path fill="#F4645F" d="M53.179-121.919c17.829,17.979,37.411,36.667,37.292,65.102C90.347-27.329,68.493-6.356,38.303-6.483
						C10.568-6.599-13.559-29.168-13.43-60.061c0.109-25.978,20.902-45.199,37.824-61.979
						c-17.828-17.979-37.41-36.667-37.291-65.102c0.125-29.84,21.977-50.461,52.169-50.334
						c27.732,0.116,51.862,22.685,51.732,53.578C90.895-157.92,70.1-138.698,53.179-121.919z M38.728-107.937
						C26.033-94.299,7.717-79.982,7.632-59.621C7.558-42.068,21.895-28.668,38.396-28.599c17.903,0.075,30.945-12.509,31.018-29.71
						C69.497-78.319,52.362-94.54,38.728-107.937z M39.179-215.359c-17.904-0.075-30.946,12.509-31.018,29.71
						c-0.084,20.009,17.049,36.23,30.686,49.627c12.694-13.638,31.01-27.955,31.096-48.316
						C70.015-201.89,55.678-215.29,39.179-215.359z"/>
				</g>
			</g>
		</g>
	</g>
	<g>
		<g>
			<g>
				<g>
					<path fill="#F9B5B2" d="M24.394-122.039c-17.828-17.979-37.41-36.667-37.291-65.102c0.125-29.84,21.977-50.461,52.169-50.334
						c27.732,0.116,51.862,22.685,51.732,53.578L77.261-168.02l-7.319-16.317c0.074-17.553-14.264-30.953-30.763-31.022
						c-17.904-0.075-30.946,12.509-31.018,29.71c-0.084,20.009,17.049,36.23,30.686,49.627"/>
				</g>
			</g>
		</g>
	</g>
	<g>
		<g>
			<g>
				<g>
					<path fill="#B74B47" d="M53.18-121.919c17.828,17.979,37.41,36.667,37.291,65.102C90.346-26.977,68.494-6.356,38.302-6.483
						C10.571-6.599-13.559-29.168-13.43-60.061L0.313-75.938l7.319,16.317C7.558-42.068,21.896-28.668,38.395-28.599
						c17.904,0.075,30.946-12.509,31.018-29.71c0.084-20.009-17.049-36.23-30.686-49.627"/>
				</g>
			</g>
		</g>
	</g>
</g>
</svg>
