<?xml version="1.0" ?><svg height="56.25" id="svg2" version="1.1" width="56.25" xml:space="preserve" xmlns="http://www.w3.org/2000/svg" xmlns:cc="http://creativecommons.org/ns#" xmlns:dc="http://purl.org/dc/elements/1.1/" xmlns:inkscape="http://www.inkscape.org/namespaces/inkscape" xmlns:rdf="http://www.w3.org/1999/02/22-rdf-syntax-ns#" xmlns:svg="http://www.w3.org/2000/svg"><defs id="defs6"><clipPath id="clipPath16"><path d="M 0,0 0,45 45,45 45,0 0,0" id="path18"/></clipPath></defs><g id="g10" transform="matrix(1.25,0,0,-1.25,0,56.25)"><g id="g12"><g clip-path="url(#clipPath16)" id="g14"><g id="g20"><g id="g22"><g id="g24"><path d="m 9.347,6.027 0,32.946 c 0,0.843 0.684,1.527 1.527,1.527 l 13.349,0 11.43,-11.43 0,-23.043 C 35.653,5.184 34.969,4.5 34.126,4.5 l -23.252,0 c -0.843,0 -1.527,0.684 -1.527,1.527 z" id="path26" style="fill:#2b2b2b;fill-opacity:1;fill-rule:evenodd;stroke:none"/></g></g><g id="g28"><g id="g30"><path d="m 24.223,40.5 11.43,-11.43 -9.903,0 c -0.843,0 -1.527,0.684 -1.527,1.527 l 0,9.903 z" id="path32" style="fill:#525252;fill-opacity:1;fill-rule:evenodd;stroke:none"/></g></g><g id="g34"><g id="g36"><path d="m 14.561,9.076 c 0,-0.149 -0.048,-0.268 -0.146,-0.357 -0.097,-0.09 -0.224,-0.135 -0.38,-0.135 -0.159,0 -0.288,0.045 -0.387,0.135 C 13.55,8.808 13.5,8.927 13.5,9.076 c 0,0.153 0.05,0.276 0.148,0.368 0.099,0.093 0.228,0.139 0.387,0.139 0.153,0 0.279,-0.046 0.378,-0.139 0.099,-0.092 0.148,-0.215 0.148,-0.368 z" id="path38" style="fill:#e6e6e6;fill-opacity:1;fill-rule:nonzero;stroke:none"/></g></g><g id="g40"><g id="g42"><path d="m 16.965,9.076 c 0,-0.149 -0.048,-0.268 -0.146,-0.357 -0.097,-0.09 -0.224,-0.135 -0.38,-0.135 -0.159,0 -0.288,0.045 -0.387,0.135 -0.098,0.089 -0.148,0.208 -0.148,0.357 0,0.153 0.05,0.276 0.148,0.368 0.099,0.093 0.228,0.139 0.387,0.139 0.153,0 0.279,-0.046 0.378,-0.139 0.099,-0.092 0.148,-0.215 0.148,-0.368 z" id="path44" style="fill:#e6e6e6;fill-opacity:1;fill-rule:nonzero;stroke:none"/></g></g><g id="g46"><g id="g48"><path d="m 19.369,9.076 c 0,-0.149 -0.048,-0.268 -0.146,-0.357 -0.097,-0.09 -0.224,-0.135 -0.38,-0.135 -0.159,0 -0.288,0.045 -0.387,0.135 -0.098,0.089 -0.148,0.208 -0.148,0.357 0,0.153 0.05,0.276 0.148,0.368 0.099,0.093 0.228,0.139 0.387,0.139 0.153,0 0.279,-0.046 0.378,-0.139 0.099,-0.092 0.148,-0.215 0.148,-0.368 z" id="path50" style="fill:#e6e6e6;fill-opacity:1;fill-rule:nonzero;stroke:none"/></g></g></g></g></g></g></svg>