<?xml version="1.0" ?><svg height="56.25" id="svg2" version="1.1" width="56.25" xml:space="preserve" xmlns="http://www.w3.org/2000/svg" xmlns:cc="http://creativecommons.org/ns#" xmlns:dc="http://purl.org/dc/elements/1.1/" xmlns:inkscape="http://www.inkscape.org/namespaces/inkscape" xmlns:rdf="http://www.w3.org/1999/02/22-rdf-syntax-ns#" xmlns:svg="http://www.w3.org/2000/svg"><defs id="defs6"><clipPath id="clipPath16"><path d="M 0,0 0,45 45,45 45,0 0,0" id="path18"/></clipPath></defs><g id="g10" transform="matrix(1.25,0,0,-1.25,0,56.25)"><g id="g12"><g clip-path="url(#clipPath16)" id="g14"><g id="g20"><g id="g22"><g id="g24"><path d="m 9.347,6.027 0,32.946 c 0,0.843 0.684,1.527 1.527,1.527 l 13.349,0 11.43,-11.43 0,-23.043 C 35.653,5.184 34.969,4.5 34.126,4.5 l -23.252,0 c -0.843,0 -1.527,0.684 -1.527,1.527 z" id="path26" style="fill:#2b2b2b;fill-opacity:1;fill-rule:evenodd;stroke:none"/></g></g><g id="g28"><g id="g30"><path d="m 24.223,40.5 11.43,-11.43 -9.903,0 c -0.843,0 -1.527,0.684 -1.527,1.527 l 0,9.903 z" id="path32" style="fill:#525252;fill-opacity:1;fill-rule:evenodd;stroke:none"/></g></g><g id="g34"><g id="g36"><path d="M 17.207,10.227 C 17.207,9.738 17.011,9.336 16.618,9.021 16.314,8.782 15.849,8.662 15.225,8.662 l -1.787,0 0,5.514 1.487,0 c 0.601,0 1.036,-0.087 1.307,-0.261 0.395,-0.255 0.593,-0.629 0.593,-1.12 0,-0.284 -0.08,-0.537 -0.24,-0.761 -0.16,-0.224 -0.36,-0.372 -0.599,-0.445 l 0,-0.02 c 0.377,-0.08 0.675,-0.235 0.894,-0.464 0.218,-0.229 0.327,-0.522 0.327,-0.878 z m -1.159,2.478 c 0,0.336 -0.122,0.571 -0.366,0.706 -0.183,0.102 -0.435,0.151 -0.757,0.149 l -0.714,0 0,-1.749 0.647,0 c 0.401,0 0.675,0.056 0.824,0.168 0.244,0.18 0.366,0.422 0.366,0.726 z m 0.363,-2.443 c 0,0.325 -0.134,0.578 -0.402,0.757 -0.197,0.133 -0.52,0.199 -0.967,0.199 l -0.831,0 0,-1.923 0.831,0 c 0.458,0 0.78,0.063 0.967,0.191 0.268,0.182 0.402,0.441 0.402,0.776 z" id="path38" style="fill:#e6e6e6;fill-opacity:1;fill-rule:nonzero;stroke:none"/></g></g><g id="g40"><g id="g42"><path d="m 23.483,14.176 0.503,-5.514 -0.769,0 -0.359,4.355 -0.023,0 -1.686,-4.401 -0.441,0 -1.686,4.401 -0.023,0 -0.351,-4.355 -0.769,0 0.496,5.514 0.96,0 1.588,-4.257 0.019,0 1.589,4.257 0.952,0 z" id="path44" style="fill:#e6e6e6;fill-opacity:1;fill-rule:nonzero;stroke:none"/></g></g><g id="g46"><g id="g48"><path d="m 28.368,12.604 c 0,-0.489 -0.178,-0.884 -0.534,-1.183 -0.305,-0.26 -0.75,-0.391 -1.335,-0.394 l -0.776,0 0,-2.365 -0.773,0 0,5.514 1.549,0 c 0.585,0 1.03,-0.13 1.335,-0.39 0.356,-0.31 0.534,-0.704 0.534,-1.182 z m -1.135,-0.738 c 0.223,0.166 0.335,0.412 0.335,0.738 0,0.325 -0.112,0.567 -0.335,0.725 -0.203,0.143 -0.469,0.215 -0.796,0.215 l -0.714,0 0,-1.885 0.714,0 c 0.33,0 0.595,0.069 0.796,0.207 z" id="path50" style="fill:#e6e6e6;fill-opacity:1;fill-rule:nonzero;stroke:none"/></g></g></g></g></g></g></svg>