<?xml version="1.0" ?><svg height="56.25" id="svg2" version="1.1" width="56.25" xml:space="preserve" xmlns="http://www.w3.org/2000/svg" xmlns:cc="http://creativecommons.org/ns#" xmlns:dc="http://purl.org/dc/elements/1.1/" xmlns:inkscape="http://www.inkscape.org/namespaces/inkscape" xmlns:rdf="http://www.w3.org/1999/02/22-rdf-syntax-ns#" xmlns:svg="http://www.w3.org/2000/svg"><defs id="defs6"><clipPath id="clipPath16"><path d="M 0,0 0,45 45,45 45,0 0,0" id="path18"/></clipPath></defs><g id="g10" transform="matrix(1.25,0,0,-1.25,0,56.25)"><g id="g12"><g clip-path="url(#clipPath16)" id="g14"><g id="g20"><g id="g22"><g id="g24"><path d="m 9.347,6.027 0,32.946 c 0,0.843 0.684,1.527 1.527,1.527 l 13.349,0 11.43,-11.43 0,-23.043 C 35.653,5.184 34.969,4.5 34.126,4.5 l -23.252,0 c -0.843,0 -1.527,0.684 -1.527,1.527 z" id="path26" style="fill:#2b2b2b;fill-opacity:1;fill-rule:evenodd;stroke:none"/></g></g><g id="g28"><g id="g30"><path d="m 24.223,40.5 11.43,-11.43 -9.903,0 c -0.843,0 -1.527,0.684 -1.527,1.527 l 0,9.903 z" id="path32" style="fill:#525252;fill-opacity:1;fill-rule:evenodd;stroke:none"/></g></g><g id="g34"><g id="g36"><path d="m 16.727,9.318 0,-0.656 -3.289,0 0,5.514 3.227,0 0,-0.648 -2.455,0 0,-1.647 2.318,0 0,-0.648 -2.318,0 0,-1.915 2.517,0 z" id="path38" style="fill:#e6e6e6;fill-opacity:1;fill-rule:nonzero;stroke:none"/></g></g><g id="g40"><g id="g42"><path d="m 21.098,12.603 c 0,-0.489 -0.178,-0.883 -0.535,-1.182 -0.304,-0.26 -0.749,-0.392 -1.334,-0.394 l -0.777,0 0,-2.365 -0.772,0 0,5.514 1.549,0 c 0.585,0 1.03,-0.13 1.334,-0.391 0.357,-0.309 0.535,-0.703 0.535,-1.182 z m -1.136,-0.737 c 0.224,0.166 0.336,0.412 0.336,0.737 0,0.325 -0.112,0.567 -0.336,0.726 -0.202,0.143 -0.468,0.214 -0.796,0.214 l -0.714,0 0,-1.884 0.714,0 c 0.331,0 0.596,0.069 0.796,0.207 z" id="path44" style="fill:#e6e6e6;fill-opacity:1;fill-rule:nonzero;stroke:none"/></g></g><g id="g46"><g id="g48"><path d="m 26.077,14.176 0,-3.259 c 0,-0.39 -0.029,-0.716 -0.087,-0.977 C 25.931,9.678 25.813,9.444 25.636,9.236 25.246,8.788 24.695,8.564 23.982,8.564 c -0.718,0 -1.269,0.224 -1.654,0.672 -0.177,0.208 -0.296,0.442 -0.357,0.704 -0.062,0.261 -0.092,0.587 -0.092,0.977 l 0,3.259 0.784,0 0,-3.188 c 0,-0.198 0.004,-0.354 0.012,-0.469 0.008,-0.114 0.03,-0.246 0.068,-0.396 0.038,-0.149 0.097,-0.273 0.178,-0.372 0.239,-0.325 0.593,-0.488 1.061,-0.488 0.458,0 0.812,0.163 1.061,0.488 0.081,0.101 0.14,0.226 0.178,0.374 0.038,0.149 0.06,0.281 0.068,0.398 0.008,0.117 0.012,0.272 0.012,0.465 l 0,3.188 0.776,0 z" id="path50" style="fill:#e6e6e6;fill-opacity:1;fill-rule:nonzero;stroke:none"/></g></g><g id="g52"><g id="g54"><path d="M 31.022,10.227 C 31.022,9.738 30.826,9.336 30.433,9.021 30.129,8.782 29.664,8.662 29.04,8.662 l -1.787,0 0,5.514 1.486,0 c 0.601,0 1.037,-0.088 1.308,-0.262 0.395,-0.255 0.593,-0.628 0.593,-1.12 0,-0.283 -0.08,-0.537 -0.24,-0.761 -0.16,-0.223 -0.36,-0.372 -0.599,-0.444 l 0,-0.02 c 0.377,-0.081 0.675,-0.235 0.893,-0.464 0.219,-0.229 0.328,-0.522 0.328,-0.878 z m -1.159,2.478 c 0,0.335 -0.122,0.571 -0.367,0.706 -0.182,0.101 -0.434,0.151 -0.757,0.148 l -0.714,0 0,-1.748 0.648,0 c 0.401,0 0.675,0.056 0.823,0.168 0.245,0.179 0.367,0.421 0.367,0.726 z m 0.363,-2.443 c 0,0.325 -0.134,0.577 -0.402,0.757 -0.198,0.133 -0.52,0.199 -0.967,0.199 l -0.832,0 0,-1.924 0.832,0 c 0.457,0 0.78,0.064 0.967,0.191 0.268,0.182 0.402,0.441 0.402,0.777 z" id="path56" style="fill:#e6e6e6;fill-opacity:1;fill-rule:nonzero;stroke:none"/></g></g></g></g></g></g></svg>