<?xml version="1.0" ?><svg height="56.25" id="svg2" version="1.1" width="56.25" xml:space="preserve" xmlns="http://www.w3.org/2000/svg" xmlns:cc="http://creativecommons.org/ns#" xmlns:dc="http://purl.org/dc/elements/1.1/" xmlns:inkscape="http://www.inkscape.org/namespaces/inkscape" xmlns:rdf="http://www.w3.org/1999/02/22-rdf-syntax-ns#" xmlns:svg="http://www.w3.org/2000/svg"><defs id="defs6"><clipPath id="clipPath16"><path d="M 0,0 0,45 45,45 45,0 0,0" id="path18"/></clipPath></defs><g id="g10" transform="matrix(1.25,0,0,-1.25,0,56.25)"><g id="g12"><g clip-path="url(#clipPath16)" id="g14"><g id="g20"><g id="g22"><g id="g24"><path d="m 9.347,6.027 0,32.946 c 0,0.843 0.684,1.527 1.527,1.527 l 13.349,0 11.43,-11.43 0,-23.043 C 35.653,5.184 34.969,4.5 34.126,4.5 l -23.252,0 c -0.843,0 -1.527,0.684 -1.527,1.527 z" id="path26" style="fill:#2b2b2b;fill-opacity:1;fill-rule:evenodd;stroke:none"/></g></g><g id="g28"><g id="g30"><path d="m 24.223,40.5 11.43,-11.43 -9.903,0 c -0.843,0 -1.527,0.684 -1.527,1.527 l 0,9.903 z" id="path32" style="fill:#525252;fill-opacity:1;fill-rule:evenodd;stroke:none"/></g></g><g id="g34"><g id="g36"><path d="m 18.28,11.604 0,-2.142 C 17.684,8.866 16.904,8.567 15.939,8.564 c -0.799,0 -1.467,0.264 -2.006,0.793 -0.538,0.528 -0.807,1.216 -0.807,2.064 0,0.843 0.267,1.526 0.801,2.05 0.535,0.524 1.203,0.787 2.004,0.787 0.89,0 1.62,-0.307 2.189,-0.921 l 0.039,-0.039 -0.527,-0.488 c -0.447,0.523 -1.014,0.784 -1.701,0.784 -0.58,0 -1.059,-0.196 -1.438,-0.587 -0.378,-0.392 -0.568,-0.92 -0.568,-1.586 0,-0.661 0.195,-1.188 0.584,-1.582 0.389,-0.395 0.878,-0.592 1.469,-0.592 0.666,0 1.164,0.149 1.494,0.445 l 0.055,0.059 0,1.221 -1.487,0 0,0.632 2.24,0 z" id="path38" style="fill:#e6e6e6;fill-opacity:1;fill-rule:nonzero;stroke:none"/></g></g><g id="g40"><g id="g42"><path d="m 20.177,14.176 0,-5.514 -0.772,0 0,5.514 0.772,0 z" id="path44" style="fill:#e6e6e6;fill-opacity:1;fill-rule:nonzero;stroke:none"/></g></g><g id="g46"><g id="g48"><path d="m 24.45,14.176 0,-0.648 -2.287,0 0,-1.838 2.15,0 0,-0.648 -2.15,0 0,-2.38 -0.772,0 0,5.514 3.059,0 z" id="path50" style="fill:#e6e6e6;fill-opacity:1;fill-rule:nonzero;stroke:none"/></g></g></g></g></g></g></svg>