<?xml version="1.0" ?><svg height="56.25" id="svg2" version="1.1" width="56.25" xml:space="preserve" xmlns="http://www.w3.org/2000/svg" xmlns:cc="http://creativecommons.org/ns#" xmlns:dc="http://purl.org/dc/elements/1.1/" xmlns:inkscape="http://www.inkscape.org/namespaces/inkscape" xmlns:rdf="http://www.w3.org/1999/02/22-rdf-syntax-ns#" xmlns:svg="http://www.w3.org/2000/svg"><defs id="defs6"><clipPath id="clipPath16"><path d="M 0,0 0,45 45,45 45,0 0,0" id="path18"/></clipPath></defs><g id="g10" transform="matrix(1.25,0,0,-1.25,0,56.25)"><g id="g12"><g clip-path="url(#clipPath16)" id="g14"><g id="g20"><g id="g22"><g id="g24"><path d="m 9.347,6.027 0,32.946 c 0,0.843 0.684,1.527 1.527,1.527 l 13.349,0 11.43,-11.43 0,-23.043 C 35.653,5.184 34.969,4.5 34.126,4.5 l -23.252,0 c -0.843,0 -1.527,0.684 -1.527,1.527 z" id="path26" style="fill:#2b2b2b;fill-opacity:1;fill-rule:evenodd;stroke:none"/></g></g><g id="g28"><g id="g30"><path d="m 24.223,40.5 11.43,-11.43 -9.903,0 c -0.843,0 -1.527,0.684 -1.527,1.527 l 0,9.903 z" id="path32" style="fill:#525252;fill-opacity:1;fill-rule:evenodd;stroke:none"/></g></g><g id="g34"><g id="g36"><path d="m 14.211,14.176 0,-5.498 C 14.211,8.155 14.129,7.766 13.965,7.511 13.746,7.212 13.45,7.063 13.075,7.063 12.979,7.063 12.883,7.07 12.788,7.084 12.693,7.098 12.62,7.113 12.57,7.129 12.519,7.145 12.488,7.155 12.478,7.16 l 0.016,0.593 c 0.101,-0.041 0.243,-0.064 0.425,-0.066 0.213,0 0.353,0.084 0.419,0.252 0.067,0.167 0.1,0.406 0.1,0.716 l 0,5.521 0.773,0 z" id="path38" style="fill:#e6e6e6;fill-opacity:1;fill-rule:nonzero;stroke:none"/></g></g><g id="g40"><g id="g42"><path d="m 18.842,12.604 c 0,-0.489 -0.178,-0.884 -0.534,-1.183 -0.305,-0.26 -0.75,-0.391 -1.335,-0.394 l -0.776,0 0,-2.365 -0.773,0 0,5.514 1.549,0 c 0.585,0 1.03,-0.13 1.335,-0.39 0.356,-0.31 0.534,-0.704 0.534,-1.182 z m -1.135,-0.738 c 0.223,0.166 0.335,0.412 0.335,0.738 0,0.325 -0.112,0.567 -0.335,0.725 -0.203,0.143 -0.469,0.215 -0.796,0.215 l -0.714,0 0,-1.885 0.714,0 c 0.33,0 0.595,0.069 0.796,0.207 z" id="path44" style="fill:#e6e6e6;fill-opacity:1;fill-rule:nonzero;stroke:none"/></g></g><g id="g46"><g id="g48"><path d="m 24.508,11.605 0,-2.143 C 23.913,8.867 23.132,8.567 22.167,8.565 c -0.798,0 -1.467,0.264 -2.006,0.792 -0.538,0.528 -0.807,1.216 -0.807,2.064 0,0.843 0.267,1.527 0.802,2.051 0.534,0.524 1.202,0.786 2.003,0.786 0.89,0 1.62,-0.307 2.189,-0.921 l 0.039,-0.039 -0.526,-0.488 c -0.448,0.523 -1.015,0.785 -1.702,0.785 -0.58,0 -1.059,-0.196 -1.438,-0.588 -0.378,-0.391 -0.567,-0.92 -0.567,-1.586 0,-0.661 0.194,-1.188 0.583,-1.582 0.389,-0.394 0.879,-0.591 1.469,-0.591 0.666,0 1.164,0.148 1.495,0.445 l 0.054,0.058 0,1.222 -1.486,0 0,0.632 2.239,0 z" id="path50" style="fill:#e6e6e6;fill-opacity:1;fill-rule:nonzero;stroke:none"/></g></g><g id="g52"><g id="g54"><path d="m 64.064,-1.99 0,31.894 c 0,0.816 0.663,1.478 1.478,1.478 l 12.923,0 11.065,-11.065 0,-22.307 c 0,-0.816 -0.662,-1.478 -1.479,-1.478 l -22.509,0 c -0.815,0 -1.478,0.662 -1.478,1.478 z" id="path56" style="fill:none;stroke:#2b2b2b;stroke-width:1.148;stroke-linecap:butt;stroke-linejoin:miter;stroke-miterlimit:10;stroke-opacity:1;stroke-dasharray:none"/></g></g><g id="g58"><g id="g60"><path d="m 68.774,5.904 0,-5.323 c 0,-0.506 -0.079,-0.882 -0.238,-1.129 -0.212,-0.29 -0.499,-0.435 -0.861,-0.435 -0.094,0 -0.186,0.007 -0.278,0.021 -0.092,0.014 -0.162,0.028 -0.211,0.044 -0.05,0.015 -0.079,0.025 -0.089,0.03 l 0.015,0.574 c 0.098,-0.04 0.235,-0.062 0.412,-0.064 0.206,0 0.341,0.081 0.406,0.243 0.064,0.163 0.096,0.394 0.096,0.694 l 0,5.345 0.748,0 z" id="path62" style="fill:#2b2b2b;fill-opacity:1;fill-rule:nonzero;stroke:none"/></g></g></g></g></g></g></svg>