<?xml version="1.0" ?><svg height="56.25" id="svg2" version="1.1" width="56.25" xml:space="preserve" xmlns="http://www.w3.org/2000/svg" xmlns:cc="http://creativecommons.org/ns#" xmlns:dc="http://purl.org/dc/elements/1.1/" xmlns:inkscape="http://www.inkscape.org/namespaces/inkscape" xmlns:rdf="http://www.w3.org/1999/02/22-rdf-syntax-ns#" xmlns:svg="http://www.w3.org/2000/svg"><defs id="defs6"><clipPath id="clipPath16"><path d="M 0,0 0,45 45,45 45,0 0,0" id="path18"/></clipPath></defs><g id="g10" transform="matrix(1.25,0,0,-1.25,0,56.25)"><g id="g12"><g clip-path="url(#clipPath16)" id="g14"><g id="g20"><g id="g22"><g id="g24"><path d="m 9.347,6.027 0,32.946 c 0,0.843 0.684,1.527 1.527,1.527 l 13.349,0 11.43,-11.43 0,-23.043 C 35.653,5.184 34.969,4.5 34.126,4.5 l -23.252,0 c -0.843,0 -1.527,0.684 -1.527,1.527 z" id="path26" style="fill:#2b2b2b;fill-opacity:1;fill-rule:evenodd;stroke:none"/></g></g><g id="g28"><g id="g30"><path d="m 24.223,40.5 11.43,-11.43 -9.903,0 c -0.843,0 -1.527,0.684 -1.527,1.527 l 0,9.903 z" id="path32" style="fill:#525252;fill-opacity:1;fill-rule:evenodd;stroke:none"/></g></g><g id="g34"><g id="g36"><path d="m 18.792,14.176 0.503,-5.514 -0.769,0 -0.359,4.355 -0.023,0 -1.686,-4.401 -0.441,0 -1.686,4.401 -0.023,0 -0.351,-4.355 -0.769,0 0.496,5.514 0.96,0 1.588,-4.257 0.019,0 1.589,4.257 0.952,0 z" id="path38" style="fill:#e6e6e6;fill-opacity:1;fill-rule:nonzero;stroke:none"/></g></g><g id="g40"><g id="g42"><path d="m 23.677,12.604 c 0,-0.489 -0.178,-0.884 -0.534,-1.183 -0.305,-0.26 -0.75,-0.391 -1.335,-0.394 l -0.776,0 0,-2.365 -0.773,0 0,5.514 1.549,0 c 0.585,0 1.03,-0.13 1.335,-0.39 0.356,-0.31 0.534,-0.704 0.534,-1.182 z m -1.135,-0.738 c 0.223,0.166 0.335,0.412 0.335,0.738 0,0.325 -0.112,0.567 -0.335,0.725 -0.203,0.143 -0.469,0.215 -0.796,0.215 l -0.714,0 0,-1.885 0.714,0 c 0.33,0 0.595,0.069 0.796,0.207 z" id="path44" style="fill:#e6e6e6;fill-opacity:1;fill-rule:nonzero;stroke:none"/></g></g><g id="g46"><g id="g48"><path d="m 29.343,11.605 0,-2.143 C 28.748,8.867 27.967,8.567 27.002,8.565 c -0.798,0 -1.467,0.264 -2.006,0.792 -0.538,0.528 -0.807,1.216 -0.807,2.064 0,0.843 0.267,1.527 0.802,2.051 0.534,0.524 1.202,0.786 2.003,0.786 0.89,0 1.62,-0.307 2.189,-0.921 l 0.039,-0.039 -0.526,-0.488 c -0.448,0.523 -1.015,0.785 -1.702,0.785 -0.58,0 -1.059,-0.196 -1.438,-0.588 -0.378,-0.391 -0.567,-0.92 -0.567,-1.586 0,-0.661 0.194,-1.188 0.583,-1.582 0.389,-0.394 0.879,-0.591 1.469,-0.591 0.666,0 1.164,0.148 1.495,0.445 l 0.054,0.058 0,1.222 -1.486,0 0,0.632 2.239,0 z" id="path50" style="fill:#e6e6e6;fill-opacity:1;fill-rule:nonzero;stroke:none"/></g></g></g></g></g></g></svg>