<?xml version="1.0" ?><svg height="56.25" id="svg2" version="1.1" width="56.25" xml:space="preserve" xmlns="http://www.w3.org/2000/svg" xmlns:cc="http://creativecommons.org/ns#" xmlns:dc="http://purl.org/dc/elements/1.1/" xmlns:inkscape="http://www.inkscape.org/namespaces/inkscape" xmlns:rdf="http://www.w3.org/1999/02/22-rdf-syntax-ns#" xmlns:svg="http://www.w3.org/2000/svg"><defs id="defs6"><clipPath id="clipPath16"><path d="M 0,0 0,45 45,45 45,0 0,0" id="path18"/></clipPath></defs><g id="g10" transform="matrix(1.25,0,0,-1.25,0,56.25)"><g id="g12"><g clip-path="url(#clipPath16)" id="g14"><g id="g20"><g id="g22"><g id="g24"><path d="m 9.347,6.027 0,32.946 c 0,0.843 0.684,1.527 1.527,1.527 l 13.349,0 11.43,-11.43 0,-23.043 C 35.653,5.184 34.969,4.5 34.126,4.5 l -23.252,0 c -0.843,0 -1.527,0.684 -1.527,1.527 z" id="path26" style="fill:#2b2b2b;fill-opacity:1;fill-rule:evenodd;stroke:none"/></g></g><g id="g28"><g id="g30"><path d="m 24.223,40.5 11.43,-11.43 -9.903,0 c -0.843,0 -1.527,0.684 -1.527,1.527 l 0,9.903 z" id="path32" style="fill:#525252;fill-opacity:1;fill-rule:evenodd;stroke:none"/></g></g><g id="g34"><g id="g36"><path d="M 16.809,10.195 C 16.809,9.712 16.617,9.312 16.232,8.998 15.88,8.709 15.43,8.564 14.881,8.564 c -0.223,0 -0.435,0.032 -0.634,0.094 -0.199,0.062 -0.375,0.151 -0.53,0.265 -0.155,0.115 -0.273,0.21 -0.353,0.287 -0.081,0.077 -0.168,0.171 -0.262,0.283 l 0.453,0.519 c 0.158,-0.213 0.362,-0.398 0.61,-0.556 0.249,-0.157 0.512,-0.236 0.791,-0.236 0.309,0 0.566,0.084 0.77,0.252 0.204,0.168 0.307,0.393 0.307,0.677 0,0.132 -0.03,0.252 -0.088,0.359 -0.059,0.106 -0.148,0.198 -0.267,0.275 -0.12,0.077 -0.209,0.13 -0.268,0.16 -0.058,0.03 -0.149,0.068 -0.271,0.115 -0.432,0.172 -0.724,0.295 -0.878,0.371 -0.224,0.101 -0.408,0.231 -0.554,0.39 -0.239,0.249 -0.359,0.569 -0.359,0.96 0,0.426 0.168,0.78 0.503,1.061 0.325,0.271 0.75,0.407 1.272,0.41 0.601,0 1.128,-0.238 1.581,-0.714 l -0.406,-0.527 c -0.372,0.395 -0.777,0.593 -1.214,0.593 -0.283,0 -0.514,-0.067 -0.692,-0.201 -0.178,-0.134 -0.267,-0.323 -0.267,-0.568 0,-0.122 0.019,-0.23 0.058,-0.324 0.039,-0.093 0.098,-0.173 0.176,-0.24 0.078,-0.066 0.151,-0.118 0.22,-0.156 0.069,-0.037 0.154,-0.077 0.256,-0.119 l 1.014,-0.425 c 0.265,-0.122 0.474,-0.27 0.625,-0.445 0.223,-0.278 0.335,-0.588 0.335,-0.929 z" id="path38" style="fill:#e6e6e6;fill-opacity:1;fill-rule:nonzero;stroke:none"/></g></g><g id="g40"><g id="g42"><path d="m 21.035,14.176 0.816,0 -2.033,-5.522 -0.687,0 -2.029,5.522 0.831,0 1.549,-4.394 1.553,4.394 z" id="path44" style="fill:#e6e6e6;fill-opacity:1;fill-rule:nonzero;stroke:none"/></g></g><g id="g46"><g id="g48"><path d="m 27.306,11.604 0,-2.142 C 26.71,8.866 25.93,8.567 24.965,8.564 c -0.799,0 -1.467,0.264 -2.006,0.793 -0.538,0.528 -0.807,1.216 -0.807,2.064 0,0.843 0.267,1.526 0.801,2.05 0.535,0.524 1.203,0.787 2.004,0.787 0.89,0 1.62,-0.307 2.189,-0.921 l 0.039,-0.039 -0.527,-0.488 c -0.447,0.523 -1.014,0.784 -1.701,0.784 -0.58,0 -1.059,-0.196 -1.438,-0.587 -0.378,-0.392 -0.568,-0.92 -0.568,-1.586 0,-0.661 0.195,-1.188 0.584,-1.582 0.389,-0.395 0.878,-0.592 1.469,-0.592 0.666,0 1.164,0.149 1.494,0.445 l 0.055,0.059 0,1.221 -1.487,0 0,0.632 2.24,0 z" id="path50" style="fill:#e6e6e6;fill-opacity:1;fill-rule:nonzero;stroke:none"/></g></g></g></g></g></g></svg>