<?xml version="1.0" ?><svg height="56.25" id="svg2" version="1.1" width="56.25" xml:space="preserve" xmlns="http://www.w3.org/2000/svg" xmlns:cc="http://creativecommons.org/ns#" xmlns:dc="http://purl.org/dc/elements/1.1/" xmlns:inkscape="http://www.inkscape.org/namespaces/inkscape" xmlns:rdf="http://www.w3.org/1999/02/22-rdf-syntax-ns#" xmlns:svg="http://www.w3.org/2000/svg"><defs id="defs6"><clipPath id="clipPath16"><path d="M 0,0 0,45 45,45 45,0 0,0" id="path18"/></clipPath></defs><g id="g10" transform="matrix(1.25,0,0,-1.25,0,56.25)"><g id="g12"><g clip-path="url(#clipPath16)" id="g14"><g id="g20"><g id="g22"><g id="g24"><path d="m 9.347,6.027 0,32.946 c 0,0.843 0.684,1.527 1.527,1.527 l 13.349,0 11.43,-11.43 0,-23.043 C 35.653,5.184 34.969,4.5 34.126,4.5 l -23.252,0 c -0.843,0 -1.527,0.684 -1.527,1.527 z" id="path26" style="fill:#2b2b2b;fill-opacity:1;fill-rule:evenodd;stroke:none"/></g></g><g id="g28"><g id="g30"><path d="m 24.223,40.5 11.43,-11.43 -9.903,0 c -0.843,0 -1.527,0.684 -1.527,1.527 l 0,9.903 z" id="path32" style="fill:#525252;fill-opacity:1;fill-rule:evenodd;stroke:none"/></g></g><g id="g34"><g id="g36"><path d="m 18.792,14.176 0.503,-5.514 -0.769,0 -0.359,4.355 -0.023,0 -1.686,-4.401 -0.441,0 -1.686,4.401 -0.023,0 -0.351,-4.355 -0.769,0 0.496,5.514 0.96,0 1.588,-4.257 0.019,0 1.589,4.257 0.952,0 z" id="path38" style="fill:#e6e6e6;fill-opacity:1;fill-rule:nonzero;stroke:none"/></g></g><g id="g40"><g id="g42"><path d="m 23.677,12.604 c 0,-0.489 -0.178,-0.884 -0.534,-1.183 -0.305,-0.26 -0.75,-0.391 -1.335,-0.394 l -0.776,0 0,-2.365 -0.773,0 0,5.514 1.549,0 c 0.585,0 1.03,-0.13 1.335,-0.39 0.356,-0.31 0.534,-0.704 0.534,-1.182 z m -1.135,-0.738 c 0.223,0.166 0.335,0.412 0.335,0.738 0,0.325 -0.112,0.567 -0.335,0.725 -0.203,0.143 -0.469,0.215 -0.796,0.215 l -0.714,0 0,-1.885 0.714,0 c 0.33,0 0.595,0.069 0.796,0.207 z" id="path44" style="fill:#e6e6e6;fill-opacity:1;fill-rule:nonzero;stroke:none"/></g></g><g id="g46"><g id="g48"><path d="m 28.087,10.204 c 0,-0.489 -0.188,-0.881 -0.564,-1.177 -0.376,-0.295 -0.851,-0.443 -1.426,-0.443 -0.713,0 -1.31,0.311 -1.791,0.933 l 0.433,0.472 c 0.07,-0.086 0.148,-0.174 0.232,-0.263 0.085,-0.09 0.237,-0.198 0.459,-0.324 0.221,-0.126 0.438,-0.189 0.651,-0.189 0.367,0 0.666,0.089 0.896,0.269 0.23,0.179 0.345,0.43 0.345,0.753 0,0.32 -0.108,0.566 -0.324,0.739 -0.216,0.173 -0.489,0.26 -0.819,0.26 l -0.41,0 0,0.616 0.41,0 c 0.299,0 0.539,0.079 0.72,0.237 0.181,0.157 0.271,0.377 0.271,0.659 0,0.282 -0.1,0.502 -0.301,0.659 -0.2,0.158 -0.447,0.236 -0.741,0.236 -0.447,0 -0.886,-0.21 -1.315,-0.632 l -0.363,0.465 c 0.219,0.239 0.461,0.43 0.728,0.571 0.267,0.142 0.605,0.213 1.016,0.213 0.474,0 0.88,-0.131 1.218,-0.392 0.338,-0.262 0.507,-0.608 0.507,-1.04 0,-0.362 -0.09,-0.641 -0.271,-0.839 -0.181,-0.198 -0.388,-0.333 -0.622,-0.406 l 0,-0.027 c 0.26,-0.047 0.502,-0.186 0.725,-0.418 0.224,-0.231 0.336,-0.542 0.336,-0.932 z" id="path50" style="fill:#e6e6e6;fill-opacity:1;fill-rule:nonzero;stroke:none"/></g></g><g id="g52"><g id="g54"><path d="m 57.674,6.62 0,31.894 c 0,0.816 0.663,1.478 1.478,1.478 l 12.923,0 11.065,-11.065 0,-22.307 c 0,-0.816 -0.662,-1.478 -1.479,-1.478 l -22.509,0 c -0.815,0 -1.478,0.662 -1.478,1.478 z" id="path56" style="fill:none;stroke:#2b2b2b;stroke-width:1.148;stroke-linecap:butt;stroke-linejoin:miter;stroke-miterlimit:10;stroke-opacity:1;stroke-dasharray:none"/></g></g><g id="g58"><g id="g60"><path d="m 66.819,14.514 0.487,-5.338 -0.744,0 -0.347,4.216 -0.023,0 -1.632,-4.261 -0.427,0 -1.632,4.261 -0.023,0 -0.34,-4.216 -0.744,0 0.48,5.338 0.929,0 1.538,-4.122 0.019,0 1.537,4.122 0.922,0 z" id="path62" style="fill:#2b2b2b;fill-opacity:1;fill-rule:nonzero;stroke:none"/></g></g><g id="g64"><g id="g66"><path d="m 71.549,12.992 c 0,-0.474 -0.172,-0.855 -0.517,-1.145 -0.295,-0.252 -0.726,-0.379 -1.292,-0.382 l -0.752,0 0,-2.289 -0.748,0 0,5.338 1.5,0 c 0.566,0 0.997,-0.126 1.292,-0.378 0.345,-0.3 0.517,-0.681 0.517,-1.144 z M 70.45,12.278 c 0.217,0.161 0.325,0.399 0.325,0.714 0,0.314 -0.108,0.549 -0.325,0.702 -0.196,0.139 -0.453,0.208 -0.771,0.208 l -0.691,0 0,-1.825 0.691,0 c 0.32,0 0.577,0.067 0.771,0.201 z" id="path68" style="fill:#2b2b2b;fill-opacity:1;fill-rule:nonzero;stroke:none"/></g></g></g></g></g></g></svg>