<?xml version="1.0" ?><svg height="56.25" id="svg2" version="1.1" width="56.25" xml:space="preserve" xmlns="http://www.w3.org/2000/svg" xmlns:cc="http://creativecommons.org/ns#" xmlns:dc="http://purl.org/dc/elements/1.1/" xmlns:inkscape="http://www.inkscape.org/namespaces/inkscape" xmlns:rdf="http://www.w3.org/1999/02/22-rdf-syntax-ns#" xmlns:svg="http://www.w3.org/2000/svg"><defs id="defs6"><clipPath id="clipPath16"><path d="M 0,0 0,45 45,45 45,0 0,0" id="path18"/></clipPath></defs><g id="g10" transform="matrix(1.25,0,0,-1.25,0,56.25)"><g id="g12"><g clip-path="url(#clipPath16)" id="g14"><g id="g20"><g id="g22"><g id="g24"><path d="m 9.347,6.027 0,32.946 c 0,0.843 0.684,1.527 1.527,1.527 l 13.349,0 11.43,-11.43 0,-23.043 C 35.653,5.184 34.969,4.5 34.126,4.5 l -23.252,0 c -0.843,0 -1.527,0.684 -1.527,1.527 z" id="path26" style="fill:#2b2b2b;fill-opacity:1;fill-rule:evenodd;stroke:none"/></g></g><g id="g28"><g id="g30"><path d="m 24.223,40.5 11.43,-11.43 -9.903,0 c -0.843,0 -1.527,0.684 -1.527,1.527 l 0,9.903 z" id="path32" style="fill:#525252;fill-opacity:1;fill-rule:evenodd;stroke:none"/></g></g><g id="g34"><g id="g36"><path d="m 18.376,13.319 0.689,0 -1.342,-4.664 -0.642,0 -1.121,3.768 -1.114,-3.768 -0.639,0 -1.345,4.664 0.689,0 1.005,-3.672 1.075,3.672 0.669,0 1.071,-3.672 1.005,3.672 z" id="path38" style="fill:#e6e6e6;fill-opacity:1;fill-rule:nonzero;stroke:none"/></g></g><g id="g40"><g id="g42"><path d="m 22.391,9.216 0,-0.554 -2.779,0 0,4.657 2.726,0 0,-0.547 -2.073,0 0,-1.391 1.958,0 0,-0.547 -1.958,0 0,-1.618 2.126,0 z" id="path44" style="fill:#e6e6e6;fill-opacity:1;fill-rule:nonzero;stroke:none"/></g></g><g id="g46"><g id="g48"><path d="M 26.379,9.984 C 26.379,9.571 26.213,9.231 25.881,8.965 25.624,8.763 25.232,8.662 24.705,8.662 l -1.51,0 0,4.657 1.256,0 c 0.507,0 0.876,-0.074 1.104,-0.221 0.334,-0.215 0.501,-0.53 0.501,-0.946 0,-0.239 -0.068,-0.453 -0.203,-0.642 -0.135,-0.189 -0.304,-0.315 -0.506,-0.376 l 0,-0.017 c 0.319,-0.068 0.571,-0.198 0.755,-0.392 0.185,-0.193 0.277,-0.44 0.277,-0.741 z M 25.4,12.077 c 0,0.283 -0.103,0.482 -0.31,0.596 -0.154,0.086 -0.367,0.128 -0.639,0.125 l -0.603,0 0,-1.476 0.547,0 c 0.338,0 0.57,0.047 0.695,0.142 0.207,0.151 0.31,0.355 0.31,0.613 z m 0.307,-2.064 c 0,0.275 -0.113,0.488 -0.34,0.64 -0.167,0.112 -0.439,0.168 -0.817,0.168 l -0.702,0 0,-1.625 0.702,0 c 0.387,0 0.659,0.054 0.817,0.161 0.227,0.154 0.34,0.373 0.34,0.656 z" id="path50" style="fill:#e6e6e6;fill-opacity:1;fill-rule:nonzero;stroke:none"/></g></g><g id="g52"><g id="g54"><path d="m 31.679,13.319 0.425,-4.657 -0.649,0 -0.303,3.678 -0.02,0 -1.424,-3.718 -0.372,0 -1.424,3.718 -0.02,0 -0.297,-3.678 -0.649,0 0.419,4.657 0.811,0 1.341,-3.596 0.016,0 1.342,3.596 0.804,0 z" id="path56" style="fill:#e6e6e6;fill-opacity:1;fill-rule:nonzero;stroke:none"/></g></g></g></g></g></g></svg>