<?xml version="1.0"?>
<svg width="225.68" height="225.687" xmlns="http://www.w3.org/2000/svg" xmlns:svg="http://www.w3.org/2000/svg" xmlns:xlink="http://www.w3.org/1999/xlink">
 <defs>
  <clipPath id="b" clipPathUnits="userSpaceOnUse">
   <path id="svg_16-8" d="m0 551.4h499.38v-551.4h-499.38v551.4z"/>
  </clipPath>
  <clipPath id="a" clipPathUnits="userSpaceOnUse">
   <path id="svg_15-3" d="m130.45 426.04c-.28-65.6 44.9-108.72 86.03-150.2-39.04-38.72-87.01-83.06-87.26-143-.31-71.276 55.36-123.35 119.35-123.61 69.654-0.293 120.07 48.093 120.36 116.13.27502 65.604-44.904 108.72-86.04 150.2 39.039 38.713 87.017 83.061 87.268 142.99.29998 71.276-55.373 123.35-119.36 123.62-.21699.00097-.424.00097-.64101.00097-69.32 0-119.43-47.5-119.71-116.13m48.582-3.444c.167 39.685 30.256 68.719 71.564 68.546 38.067-.15899 71.147-31.076 70.979-71.571-.198-46.977-42.457-80.009-71.744-111.47-31.463 30.909-70.992 68.334-70.799 114.5m69.76-362.36c-38.071.16-71.149 31.075-70.978 71.574.19599 46.976 42.453 80.009 71.745 111.47 31.453-30.909 70.989-68.335 70.798-114.5-.18-39.571-30.09-68.55-71.21-68.548h-.36701"/>
  </clipPath>
 </defs>
 <g id="g3659">
  <title id="title3661">Layer 1</title>
  <g id="g13">
   <path id="path15" d="m225.68 112.85c0 62.324-50.515 112.84-112.84 112.84-62.314.000992-112.84-50.515-112.84-112.84 0-62.322 50.522-112.85 112.84-112.85 62.329 0 112.84 50.525 112.84 112.85z"/>
   <path id="path17" d="m151.79 112.85c0 21.511-17.439 38.958-38.956 38.958-21.515 0-38.955-17.446-38.955-38.958 0-21.517 17.44-38.956 38.955-38.956 21.517 0 38.956 17.44 38.956 38.956z" fill="#fff"/>
   <g stroke-linejoin="round" stroke="#fff" stroke-linecap="round" stroke-width="2.5007" fill="none">
    <path id="path23" d="m20.097 66.216c10.823-21.487 28.895-38.693 51.004-48.415"/>
    <path id="path27" d="m207.88 154.58c-10.452 23.771-29.559 42.877-53.335 53.329"/>
    <path id="path31" d="m26.954 65.298c9.794-17.665 24.883-31.985 43.118-40.829"/>
    <path id="path35" d="m201.25 155.54c-9.625 19.901-25.782 36.058-45.683 45.696"/>
    <path id="path41" d="m31.278 68.092c9.515-17.3 24.375-31.246 42.349-39.614"/>
    <path id="path45" d="m197.29 151.87c-9.156 19.784-25.053 35.804-44.745 45.11"/>
    <path id="path49" d="m194.59 145.04c-7.587 19.257-21.783 35.187-39.797 45"/>
    <path id="path53" d="m34.828 72.416c8.355-16.082 21.529-29.25 37.608-37.595"/>
    <path id="path57" d="m188.86 145.89c-7.666 17.616-21.282 32.054-38.312 40.767"/>
    <path id="path61" d="m40.22 72.872c8.303-15.05 21.152-27.241 36.689-34.73"/>
    <path id="path65" d="m42.851 79.472c6.779-14.2 17.759-26.01 31.324-33.834"/>
    <path id="path69" d="m176.43 145.88c-6.18 11.878-15.591 21.803-27.065 28.621"/>
    <path id="path73" d="m50.691 77.164c6.825-11.859 16.945-21.582 29.116-27.915"/>
    <path id="path77" d="m169.12 146.98c-6.206 10.204-15.102 18.586-25.704 24.16"/>
    <path id="path81" d="m57.354 77.446c6.532-10.221 15.818-18.521 26.804-23.848"/>
    <path id="path85" d="m165.92 141.23c-4.956 9.247-12.263 17.055-21.119 22.623"/>
    <path id="path89" d="m62.042 80.556c5.49-8.619 13.103-15.743 22.109-20.631"/>
    <path id="path93" d="m162.67 136.57c-4.688 9.839-12.21 18.071-21.503 23.646"/>
    <path id="path97" d="m64.289 86.57c5.105-9.407 12.861-17.167 22.265-22.272"/>
    <path id="path101" d="m156.9 135.56c-4.337 8.4-11.005 15.401-19.152 20.142"/>
    <path id="path105" d="m69.974 87.932c5.229-8.974 13.2-16.157 22.76-20.406"/>
    <path id="path109" d="m154.07 129.81c-4.11 9.957-11.709 18.104-21.283 22.904"/>
    <path id="path113" d="m73.236 92.376c4.24-8.186 10.941-14.89 19.127-19.13"/>
    <path id="path117" d="m185.23 140.64c-6.082 15.844-17.219 29.175-31.428 38.03"/>
   </g>
  </g>
  <g id="svg_19" transform="matrix(.068068 -.068068 .068068 .068068 64.77 110.18)">
   <g id="g3732" transform="matrix(1.3333 0 0 -1.3333 0 735.19)">
    <g id="g3734">
     <g id="g3736" clip-path="url(#b)">
      <g id="g3738">
       <path id="path3740" style="fill:#b7c5d9" d="m250.59 491.14c-41.308.173-71.398-28.861-71.564-68.547-.194-46.164 39.335-83.589 70.798-114.5 29.288 31.466 71.546 64.498 71.744 111.48.16901 40.495-32.912 71.412-70.978 71.571m-1.038-247.84c-29.29-31.47-71.55-64.5-71.74-111.47-.17-40.502 32.91-71.419 70.98-71.578 41.305-0.173 71.396 28.861 71.564 68.547.19201 46.166-39.344 83.591-70.798 114.5m33.341 32.259c41.13-41.48 86.31-84.6 86.03-150.2-.28-68.041-50.7-116.43-120.36-116.13-63.99.2642-119.66 52.335-119.36 123.61.252 59.936 48.225 104.28 87.267 143-41.132 41.481-86.312 84.598-86.037 150.2.28601 68.844 50.703 116.42 120.36 116.13 63.983-.26801 119.66-52.339 119.36-123.61-.25101-59.934-48.229-104.28-87.267-143"/>
      </g>
     </g>
    </g>
    <g id="g3742">
     <g id="g3744" clip-path="url(#a)">
      <g id="g3746">
       <path id="path3748" style="fill:#d6daf0" d="m216.48 275.84c-41.133 41.481-86.312 84.598-86.037 150.2.28799 68.846 50.705 116.42 120.36 116.13 63.983-.26795 119.66-52.339 119.36-123.61l-31.708-36.631-16.886 37.646c.17099 40.499-32.91 71.415-70.976 71.574-41.308.173-71.399-28.861-71.565-68.547-.19299-46.164 39.336-83.589 70.799-114.5"/>
      </g>
      <g id="g3750">
       <path id="path3752" style="fill:#34345c" d="m282.89 275.56c41.133-41.481 86.312-84.598 86.038-150.2-.29-68.85-50.7-116.43-120.36-116.13-63.98.2642-119.66 52.335-119.36 123.61l31.708 36.631 16.886-37.646c-.17101-40.499 32.91-71.415 70.976-71.574 41.308-.17299 71.399 28.861 71.565 68.547.19299 46.164-39.336 83.589-70.799 114.5"/>
      </g>
     </g>
    </g>
   </g>
  </g>
  <circle id="svg_23" stroke-linejoin="null" r="2" stroke-linecap="null" cy="112.5" cx="112.5" stroke-dasharray="null" stroke-width="null"/>
 </g>
</svg>
