<?xml version="1.0"?>
<svg width="225.68" height="225.687" xmlns="http://www.w3.org/2000/svg" xmlns:svg="http://www.w3.org/2000/svg" xmlns:xlink="http://www.w3.org/1999/xlink">
 <g>
  <title>Layer 1</title>
  <g id="g13">
   <path fill="black" d="m225.679993,112.847c0,62.324005 -50.514999,112.839005 -112.843994,112.839005c-62.313999,0.000992 -112.835999,-50.514999 -112.835999,-112.839005c0,-62.321999 50.521999,-112.847 112.835999,-112.847c62.328995,0 112.843994,50.525002 112.843994,112.847z" id="path15"/>
   <path d="m151.792007,112.847c0,21.511002 -17.439011,38.957993 -38.956009,38.957993c-21.514999,0 -38.955002,-17.445999 -38.955002,-38.957993c0,-21.516998 17.440002,-38.956001 38.955002,-38.956001c21.516998,0 38.956009,17.440002 38.956009,38.956001z" id="path17" fill="#ffffff"/>
   <path d="m20.097,66.216003c10.823,-21.487003 28.895,-38.693003 51.003998,-48.415003" id="path23" stroke-linejoin="round" stroke-linecap="round" stroke-width="2.5007" stroke="#ffffff" fill="none"/>
   <path d="m207.882004,154.578995c-10.452011,23.771011 -29.559006,42.876999 -53.335007,53.32901" id="path27" stroke-linejoin="round" stroke-linecap="round" stroke-width="2.5007" stroke="#ffffff" fill="none"/>
   <path d="m26.954,65.297997c9.794001,-17.664997 24.883001,-31.984997 43.117998,-40.828997" id="path31" stroke-linejoin="round" stroke-linecap="round" stroke-width="2.5007" stroke="#ffffff" fill="none"/>
   <path d="m201.246002,155.542999c-9.625,19.901001 -25.781998,36.057999 -45.682999,45.695999" id="path35" stroke-linejoin="round" stroke-linecap="round" stroke-width="2.5007" stroke="#ffffff" fill="none"/>
   <path d="m31.278,68.092003c9.514999,-17.300003 24.375,-31.246002 42.348999,-39.614002" id="path41" stroke-linejoin="round" stroke-linecap="round" stroke-width="2.5007" stroke="#ffffff" fill="none"/>
   <path d="m197.292999,151.869995c-9.156006,19.784012 -25.052994,35.804001 -44.744995,45.110001" id="path45" stroke-linejoin="round" stroke-linecap="round" stroke-width="2.5007" stroke="#ffffff" fill="none"/>
   <path d="m194.591003,145.044998c-7.587006,19.257004 -21.783005,35.186996 -39.796997,45" id="path49" stroke-linejoin="round" stroke-linecap="round" stroke-width="2.5007" stroke="#ffffff" fill="none"/>
   <path d="m34.827999,72.416c8.355,-16.082001 21.528999,-29.25 37.607998,-37.595001" id="path53" stroke-linejoin="round" stroke-linecap="round" stroke-width="2.5007" stroke="#ffffff" fill="none"/>
   <path d="m188.860001,145.891998c-7.666,17.615997 -21.281998,32.054001 -38.311996,40.766998" id="path57" stroke-linejoin="round" stroke-linecap="round" stroke-width="2.5007" stroke="#ffffff" fill="none"/>
   <path d="m40.220001,72.872002c8.302998,-15.050003 21.152,-27.241001 36.688995,-34.730003" id="path61" stroke-linejoin="round" stroke-linecap="round" stroke-width="2.5007" stroke="#ffffff" fill="none"/>
   <path d="m42.851002,79.472c6.778999,-14.199997 17.758999,-26.009998 31.324001,-33.834" id="path65" stroke-linejoin="round" stroke-linecap="round" stroke-width="2.5007" stroke="#ffffff" fill="none"/>
   <path d="m176.434998,145.878998c-6.179993,11.878006 -15.591003,21.803009 -27.065002,28.621002" id="path69" stroke-linejoin="round" stroke-linecap="round" stroke-width="2.5007" stroke="#ffffff" fill="none"/>
   <path d="m50.691002,77.164001c6.824997,-11.859001 16.945,-21.582001 29.115997,-27.915001" id="path73" stroke-linejoin="round" stroke-linecap="round" stroke-width="2.5007" stroke="#ffffff" fill="none"/>
   <path d="m169.121002,146.979004c-6.206009,10.203995 -15.102005,18.585999 -25.703995,24.160004" id="path77" stroke-linejoin="round" stroke-linecap="round" stroke-width="2.5007" stroke="#ffffff" fill="none"/>
   <path d="m57.354,77.445999c6.532001,-10.221001 15.817997,-18.521 26.803997,-23.848" id="path81" stroke-linejoin="round" stroke-linecap="round" stroke-width="2.5007" stroke="#ffffff" fill="none"/>
   <path d="m165.923996,141.229004c-4.955994,9.246994 -12.263,17.054993 -21.119003,22.623001" id="path85" stroke-linejoin="round" stroke-linecap="round" stroke-width="2.5007" stroke="#ffffff" fill="none"/>
   <path d="m62.042,80.556c5.489998,-8.619003 13.102997,-15.742996 22.109001,-20.631001" id="path89" stroke-linejoin="round" stroke-linecap="round" stroke-width="2.5007" stroke="#ffffff" fill="none"/>
   <path d="m162.673996,136.572998c-4.688004,9.839005 -12.209991,18.070999 -21.502991,23.645996" id="path93" stroke-linejoin="round" stroke-linecap="round" stroke-width="2.5007" stroke="#ffffff" fill="none"/>
   <path d="m64.289001,86.57c5.104996,-9.406998 12.861,-17.167 22.264999,-22.272003" id="path97" stroke-linejoin="round" stroke-linecap="round" stroke-width="2.5007" stroke="#ffffff" fill="none"/>
   <path d="m156.897003,135.563004c-4.337006,8.399994 -11.005005,15.401001 -19.152008,20.141998" id="path101" stroke-linejoin="round" stroke-linecap="round" stroke-width="2.5007" stroke="#ffffff" fill="none"/>
   <path d="m69.973999,87.931999c5.229004,-8.973999 13.200005,-16.156998 22.760002,-20.405998" id="path105" stroke-linejoin="round" stroke-linecap="round" stroke-width="2.5007" stroke="#ffffff" fill="none"/>
   <path d="m154.065002,129.807007c-4.110001,9.957001 -11.709,18.103989 -21.283005,22.903992" id="path109" stroke-linejoin="round" stroke-linecap="round" stroke-width="2.5007" stroke="#ffffff" fill="none"/>
   <path d="m73.236,92.375999c4.239998,-8.185997 10.941002,-14.889999 19.126999,-19.129997" id="path113" stroke-linejoin="round" stroke-linecap="round" stroke-width="2.5007" stroke="#ffffff" fill="none"/>
   <path d="m185.225998,140.643997c-6.082001,15.844009 -17.218994,29.175003 -31.427994,38.029999" id="path117" stroke-linejoin="round" stroke-linecap="round" stroke-width="2.5007" stroke="#ffffff" fill="none"/>
  </g>
  <use id="svg_19" xlink:href="#svg_18" y="232.237254" x="467.876887" transform="rotate(-45 112.45307922363284,112.5443649291992) matrix(0.31358481651383163,0,0,0.31358481651383163,-69.65076360874485,4.332300085914994) " fill="#000000"/>
  <g id="svg_20"/>
  <circle fill="#000000" stroke-width="null" stroke-dasharray="null" stroke-linejoin="null" stroke-linecap="null" cx="112.5" cy="112.5" r="2" id="svg_23"/>
 </g>
 <defs>
  <symbol viewBox="0 0 665.836 735.19336" id="svg_18" xmlns:svg="http://www.w3.org/2000/svg" xmlns="http://www.w3.org/2000/svg">
   <metadata id="svg_17">image/svg+xml</metadata>
   <defs>
    <clipPath id="svg_12" clipPathUnits="userSpaceOnUse">
     <path id="svg_16" d="m0,551.39502l499.377014,0l0,-551.39502l-499.377014,0l0,551.39502z"/>
    </clipPath>
    <clipPath id="svg_5" clipPathUnits="userSpaceOnUse">
     <path id="svg_15" d="m130.445007,426.040985c-0.275009,-65.60498 44.904999,-108.721985 86.036987,-150.202972l0,0c-39.042999,-38.71402 -87.014999,-83.06102 -87.266998,-142.997009l0,0c-0.300003,-71.277004 55.367996,-123.347003 119.358002,-123.615004l0,0c69.653992,-0.292999 120.074982,48.093 120.360992,116.131002l0,0c0.275024,65.603981 -44.903992,108.721001 -86.039978,150.201988l0,0c39.039001,38.713013 87.016998,83.061005 87.267975,142.994995l0,0c0.299988,71.276001 -55.372986,123.347992 -119.354996,123.615021l0,0c-0.216995,0.000977 -0.423996,0.000977 -0.641006,0.000977l0,0c-69.321991,-0.003967 -119.435989,-47.498993 -119.720978,-116.128998m48.582001,-3.444c0.167007,39.684998 30.255997,68.718994 71.563995,68.54599l0,0c38.067017,-0.158997 71.147003,-31.075989 70.979004,-71.570984l0,0c-0.197998,-46.97702 -42.457001,-80.009003 -71.744003,-111.473999l0,0c-31.462997,30.908997 -70.991989,68.333984 -70.799011,114.498993m69.76001,-362.345005c-38.070999,0.16 -71.149002,31.075001 -70.977997,71.573994l0,0c0.195999,46.976013 42.452988,80.009003 71.74501,111.473999l0,0c31.453003,-30.908997 70.988983,-68.334991 70.798004,-114.500992l0,0c-0.16803,-39.569984 -30.07901,-68.548981 -71.198013,-68.546982l0,0c-0.121002,0 -0.246002,0 -0.367004,0"/>
    </clipPath>
   </defs>
   <g transform="matrix(1.3333333,0,0,-1.3333333,0,735.19333) " id="svg_2">
    <g id="svg_10">
     <g clip-path="url(#svg_12)" id="svg_11">
      <g id="svg_13">
       <path id="svg_14" d="m250.591705,491.143188c-41.307999,0.173004 -71.39801,-28.860992 -71.563995,-68.546997c-0.194,-46.164001 39.334991,-83.588989 70.797989,-114.498993c29.28801,31.466003 71.546005,64.497986 71.744003,111.475006c0.169006,40.494995 -32.911987,71.411987 -70.977997,71.570984m-1.037994,-247.843002c-29.292007,-31.465988 -71.549011,-64.498001 -71.744995,-111.473984c-0.170013,-40.498016 32.90799,-71.415009 70.978973,-71.574005c41.305023,-0.173004 71.396027,28.860992 71.564026,68.546997c0.192017,46.165985 -39.344025,83.591003 -70.798004,114.500992m33.341003,32.259018c41.13501,-41.481018 86.313965,-84.598022 86.040009,-150.203033c-0.286011,-68.036987 -50.708008,-116.422974 -120.362015,-116.129974c-63.990005,0.268005 -119.658005,52.338989 -119.358002,123.61499c0.251999,59.936005 48.224991,104.28299 87.266998,142.997009c-41.132004,41.480988 -86.311996,84.597961 -86.037003,150.202972c0.286011,68.844025 50.703003,116.42099 120.362,116.128021c63.983002,-0.268005 119.654999,-52.33902 119.355011,-123.61499c-0.251007,-59.934021 -48.229004,-104.28302 -87.266998,-142.995026" fill-rule="nonzero" fill="#B7C5D9"/>
      </g>
     </g>
    </g>
    <g id="svg_3">
     <g clip-path="url(#svg_5)" id="svg_4">
      <g id="svg_8">
       <path id="svg_9" d="m216.479904,275.83609c-41.132996,41.480988 -86.311996,84.597992 -86.037003,150.203003c0.287994,68.845978 50.705002,116.423004 120.363007,116.129974c63.983002,-0.267944 119.656006,-52.338989 119.356018,-123.61496l-31.708008,-36.631012l-16.885986,37.645996c0.17099,40.498993 -32.910034,71.414978 -70.976013,71.574005c-41.307999,0.173004 -71.399002,-28.860992 -71.565018,-68.547028c-0.192993,-46.163971 39.335999,-83.588959 70.799011,-114.498962" fill-rule="nonzero" fill="#d6daf0"/>
      </g>
      <g id="svg_6">
       <path id="svg_7" d="m282.894714,275.559204c41.132996,-41.481003 86.312012,-84.598007 86.037994,-150.203003c-0.289001,-68.845993 -50.705994,-116.423004 -120.363998,-116.130005c-63.982986,0.268005 -119.655991,52.339005 -119.356003,123.615005l31.708008,36.630997l16.886002,-37.645996c-0.171005,-40.498993 32.909988,-71.414993 70.975998,-71.574005c41.308014,-0.172989 71.398987,28.861008 71.565002,68.547012c0.192993,46.164001 -39.335999,83.588989 -70.799011,114.498993" fill-rule="nonzero" fill="#34345C"/>
      </g>
     </g>
    </g>
   </g>
  </symbol>
 </defs>
</svg>