<?xml version="1.0"?>
<svg width="225.68" height="225.687" xmlns="http://www.w3.org/2000/svg" xmlns:svg="http://www.w3.org/2000/svg" xmlns:xlink="http://www.w3.org/1999/xlink">
 <g>
  <title>Layer 1</title>
  <g id="g13">
   <path id="path15" d="m225.679993,112.847c0,62.324005 -50.514999,112.839005 -112.843994,112.839005c-62.313999,0.000992 -112.835999,-50.514999 -112.835999,-112.839005c0,-62.321999 50.521999,-112.847 112.835999,-112.847c62.328995,0 112.843994,50.525002 112.843994,112.847z"/>
   <path fill="#ffffff" id="path17" d="m151.792007,112.847c0,21.511002 -17.439011,38.957993 -38.956009,38.957993c-21.514999,0 -38.955002,-17.445999 -38.955002,-38.957993c0,-21.516998 17.440002,-38.956001 38.955002,-38.956001c21.516998,0 38.956009,17.440002 38.956009,38.956001z"/>
   <path fill="black" id="path119" d="m116.865997,112.847c0,2.226997 -1.802994,4.031998 -4.029999,4.031998c-2.219002,0 -4.028999,-1.805 -4.028999,-4.031998c0,-2.227997 1.809998,-4.030998 4.028999,-4.030998c2.227005,0 4.029999,1.804001 4.029999,4.030998z"/>
   <path fill="none" stroke="#ffffff" stroke-width="2.5007" stroke-linecap="round" stroke-linejoin="round" id="path23" d="m20.097,66.216003c10.823,-21.487003 28.895,-38.693003 51.003998,-48.415003"/>
   <path fill="none" stroke="#ffffff" stroke-width="2.5007" stroke-linecap="round" stroke-linejoin="round" id="path27" d="m207.882004,154.578995c-10.452011,23.771011 -29.559006,42.876999 -53.335007,53.32901"/>
   <path fill="none" stroke="#ffffff" stroke-width="2.5007" stroke-linecap="round" stroke-linejoin="round" id="path31" d="m26.954,65.297997c9.794001,-17.664997 24.883001,-31.984997 43.117998,-40.828997"/>
   <path fill="none" stroke="#ffffff" stroke-width="2.5007" stroke-linecap="round" stroke-linejoin="round" id="path35" d="m201.246002,155.542999c-9.625,19.901001 -25.781998,36.057999 -45.682999,45.695999"/>
   <path fill="none" stroke="#ffffff" stroke-width="2.5007" stroke-linecap="round" stroke-linejoin="round" id="path41" d="m31.278,68.092003c9.514999,-17.300003 24.375,-31.246002 42.348999,-39.614002"/>
   <path fill="none" stroke="#ffffff" stroke-width="2.5007" stroke-linecap="round" stroke-linejoin="round" id="path45" d="m197.292999,151.869995c-9.156006,19.784012 -25.052994,35.804001 -44.744995,45.110001"/>
   <path fill="none" stroke="#ffffff" stroke-width="2.5007" stroke-linecap="round" stroke-linejoin="round" id="path49" d="m194.591003,145.044998c-7.587006,19.257004 -21.783005,35.186996 -39.796997,45"/>
   <path fill="none" stroke="#ffffff" stroke-width="2.5007" stroke-linecap="round" stroke-linejoin="round" id="path53" d="m34.827999,72.416c8.355,-16.082001 21.528999,-29.25 37.607998,-37.595001"/>
   <path fill="none" stroke="#ffffff" stroke-width="2.5007" stroke-linecap="round" stroke-linejoin="round" id="path57" d="m188.860001,145.891998c-7.666,17.615997 -21.281998,32.054001 -38.311996,40.766998"/>
   <path fill="none" stroke="#ffffff" stroke-width="2.5007" stroke-linecap="round" stroke-linejoin="round" id="path61" d="m40.220001,72.872002c8.302998,-15.050003 21.152,-27.241001 36.688995,-34.730003"/>
   <path fill="none" stroke="#ffffff" stroke-width="2.5007" stroke-linecap="round" stroke-linejoin="round" id="path65" d="m42.851002,79.472c6.778999,-14.199997 17.758999,-26.009998 31.324001,-33.834"/>
   <path fill="none" stroke="#ffffff" stroke-width="2.5007" stroke-linecap="round" stroke-linejoin="round" id="path69" d="m176.434998,145.878998c-6.179993,11.878006 -15.591003,21.803009 -27.065002,28.621002"/>
   <path fill="none" stroke="#ffffff" stroke-width="2.5007" stroke-linecap="round" stroke-linejoin="round" id="path73" d="m50.691002,77.164001c6.824997,-11.859001 16.945,-21.582001 29.115997,-27.915001"/>
   <path fill="none" stroke="#ffffff" stroke-width="2.5007" stroke-linecap="round" stroke-linejoin="round" id="path77" d="m169.121002,146.979004c-6.206009,10.203995 -15.102005,18.585999 -25.703995,24.160004"/>
   <path fill="none" stroke="#ffffff" stroke-width="2.5007" stroke-linecap="round" stroke-linejoin="round" id="path81" d="m57.354,77.445999c6.532001,-10.221001 15.817997,-18.521 26.803997,-23.848"/>
   <path fill="none" stroke="#ffffff" stroke-width="2.5007" stroke-linecap="round" stroke-linejoin="round" id="path85" d="m165.923996,141.229004c-4.955994,9.246994 -12.263,17.054993 -21.119003,22.623001"/>
   <path fill="none" stroke="#ffffff" stroke-width="2.5007" stroke-linecap="round" stroke-linejoin="round" id="path89" d="m62.042,80.556c5.489998,-8.619003 13.102997,-15.742996 22.109001,-20.631001"/>
   <path fill="none" stroke="#ffffff" stroke-width="2.5007" stroke-linecap="round" stroke-linejoin="round" id="path93" d="m162.673996,136.572998c-4.688004,9.839005 -12.209991,18.070999 -21.502991,23.645996"/>
   <path fill="none" stroke="#ffffff" stroke-width="2.5007" stroke-linecap="round" stroke-linejoin="round" id="path97" d="m64.289001,86.57c5.104996,-9.406998 12.861,-17.167 22.264999,-22.272003"/>
   <path fill="none" stroke="#ffffff" stroke-width="2.5007" stroke-linecap="round" stroke-linejoin="round" id="path101" d="m156.897003,135.563004c-4.337006,8.399994 -11.005005,15.401001 -19.152008,20.141998"/>
   <path fill="none" stroke="#ffffff" stroke-width="2.5007" stroke-linecap="round" stroke-linejoin="round" id="path105" d="m69.973999,87.931999c5.229004,-8.973999 13.200005,-16.156998 22.760002,-20.405998"/>
   <path fill="none" stroke="#ffffff" stroke-width="2.5007" stroke-linecap="round" stroke-linejoin="round" id="path109" d="m154.065002,129.807007c-4.110001,9.957001 -11.709,18.103989 -21.283005,22.903992"/>
   <path fill="none" stroke="#ffffff" stroke-width="2.5007" stroke-linecap="round" stroke-linejoin="round" id="path113" d="m73.236,92.375999c4.239998,-8.185997 10.941002,-14.889999 19.126999,-19.129997"/>
   <path fill="none" stroke="#ffffff" stroke-width="2.5007" stroke-linecap="round" stroke-linejoin="round" id="path117" d="m185.225998,140.643997c-6.082001,15.844009 -17.218994,29.175003 -31.427994,38.029999"/>
  </g>
  <use fill="#000000" transform="rotate(45 112.96295166015632,112.64402008056636) matrix(0.10450961580919033,0,0,0.10450961580919033,53.7805776041684,88.0759516732578) " x="233.369979" y="-132.516983" xlink:href="#svg_18" id="svg_19"/>
  <g id="svg_20"/>
  <circle id="svg_23" r="1.705994" cy="112.344268" cx="112.735634" stroke-linecap="null" stroke-linejoin="null" stroke-dasharray="null" stroke-width="null" fill="#000000"/>
 </g>
 <defs>
  <symbol id="svg_18" width="665.836" height="735.19336" viewBox="0 0 665.836 735.19336" xmlns="http://www.w3.org/2000/svg" xmlns:svg="http://www.w3.org/2000/svg">
   <metadata id="svg_17">image/svg+xml</metadata>
   <defs>
    <clipPath clipPathUnits="userSpaceOnUse" id="svg_12">
     <path d="m0,551.39502l499.377014,0l0,-551.39502l-499.377014,0l0,551.39502z" id="svg_16"/>
    </clipPath>
    <clipPath clipPathUnits="userSpaceOnUse" id="svg_5">
     <path d="m130.445007,426.040985c-0.275009,-65.60498 44.904999,-108.721985 86.036987,-150.202972l0,0c-39.042999,-38.71402 -87.014999,-83.06102 -87.266998,-142.997009l0,0c-0.300003,-71.277004 55.367996,-123.347003 119.358002,-123.615004l0,0c69.653992,-0.292999 120.074982,48.093 120.360992,116.131002l0,0c0.275024,65.603981 -44.903992,108.721001 -86.039978,150.201988l0,0c39.039001,38.713013 87.016998,83.061005 87.267975,142.994995l0,0c0.299988,71.276001 -55.372986,123.347992 -119.354996,123.615021l0,0c-0.216995,0.000977 -0.423996,0.000977 -0.641006,0.000977l0,0c-69.321991,-0.003967 -119.435989,-47.498993 -119.720978,-116.128998m48.582001,-3.444c0.167007,39.684998 30.255997,68.718994 71.563995,68.54599l0,0c38.067017,-0.158997 71.147003,-31.075989 70.979004,-71.570984l0,0c-0.197998,-46.97702 -42.457001,-80.009003 -71.744003,-111.473999l0,0c-31.462997,30.908997 -70.991989,68.333984 -70.799011,114.498993m69.76001,-362.345005c-38.070999,0.16 -71.149002,31.075001 -70.977997,71.573994l0,0c0.195999,46.976013 42.452988,80.009003 71.74501,111.473999l0,0c31.453003,-30.908997 70.988983,-68.334991 70.798004,-114.500992l0,0c-0.16803,-39.569984 -30.07901,-68.548981 -71.198013,-68.546982l0,0c-0.121002,0 -0.246002,0 -0.367004,0" id="svg_15"/>
    </clipPath>
   </defs>
   <g id="svg_2" transform="matrix(1.3333333,0,0,-1.3333333,0,735.19333)">
    <g id="svg_10">
     <g id="svg_11" clip-path="url(#svg_12)">
      <g id="svg_13" transform="translate(250.5917,491.1432)">
       <path fill="#B7C5D9" fill-rule="nonzero" d="m0,0c-41.307999,0.173 -71.398003,-28.861 -71.564003,-68.546997c-0.194,-46.164001 39.335003,-83.588989 70.797993,-114.499008c29.288,31.466003 71.546001,64.498009 71.744007,111.475006c0.169006,40.494999 -32.911995,71.411999 -70.977997,71.570999m-1.038,-247.843002c-29.292,-31.465988 -71.548998,-64.498001 -71.744997,-111.473984c-0.170006,-40.498016 32.907997,-71.415009 70.978987,-71.574005c41.305002,-0.173004 71.396013,28.860992 71.564012,68.546997c0.192001,46.165985 -39.344011,83.591003 -70.798002,114.500992m33.341001,32.259003c41.135002,-41.481003 86.313995,-84.598007 86.040001,-150.203018c-0.286003,-68.036987 -50.708,-116.422974 -120.362002,-116.129974c-63.990003,0.268005 -119.658002,52.338989 -119.357999,123.61499c0.251999,59.936005 48.224998,104.28299 87.266998,142.996994c-41.131996,41.481003 -86.311996,84.597992 -86.037003,150.202995c0.286003,68.844013 50.703003,116.421013 120.362003,116.128014c63.982998,-0.268002 119.655003,-52.339001 119.355,-123.614998c-0.250999,-59.933998 -48.228996,-104.282997 -87.266998,-142.995003" id="svg_14"/>
      </g>
     </g>
    </g>
    <g id="svg_3">
     <g id="svg_4" clip-path="url(#svg_5)">
      <g id="svg_8" transform="translate(216.4799,275.8361)">
       <path fill="#d6daf0" fill-rule="nonzero" d="m0,0c-41.132999,41.480999 -86.311996,84.598 -86.037003,150.203003c0.288002,68.845993 50.705002,116.423004 120.363003,116.130005c63.982998,-0.268005 119.655994,-52.339005 119.356007,-123.615005l-31.708008,-36.631004l-16.886002,37.646004c0.171005,40.498993 -32.909996,71.414993 -70.975998,71.574005c-41.308,0.172989 -71.398998,-28.861008 -71.564999,-68.547012c-0.193001,-46.163994 39.335999,-83.588993 70.799,-114.498993" id="svg_9"/>
      </g>
      <g id="svg_6" transform="translate(282.8947,275.5592)">
       <path fill="#34345C" fill-rule="nonzero" d="m0,0c41.132999,-41.480999 86.311996,-84.598 86.038002,-150.203003c-0.289001,-68.845993 -50.706001,-116.423004 -120.364002,-116.130005c-63.982998,0.268005 -119.655994,52.339005 -119.356007,123.615005l31.708008,36.631004l16.886002,-37.646004c-0.171005,-40.498993 32.909996,-71.414993 70.975998,-71.574005c41.308,-0.172989 71.398998,28.861008 71.564999,68.547012c0.193001,46.163994 -39.335999,83.588985 -70.799,114.498993" id="svg_7"/>
      </g>
     </g>
    </g>
   </g>
  </symbol>
 </defs>
</svg>